<?xml version="1.0"?>
<svg xmlns="http://www.w3.org/2000/svg" height="512px" viewBox="0 -24 464 464" width="512px" class=""><g><path d="m168 80c0 4.417969-3.582031 8-8 8s-8-3.582031-8-8 3.582031-8 8-8 8 3.582031 8 8zm0 0" data-original="#000000" class="active-path" data-old_color="#51aecf" fill="#51aecf"/><path d="m182.527344 72h24.753906c-3.386719-20.054688-19.226562-35.886719-39.28125-39.28125v24.753906c6.777344 2.421875 12.113281 7.75 14.527344 14.527344zm0 0" data-original="#000000" class="active-path" data-old_color="#51aecf" fill="#51aecf"/><path d="m168 102.527344v24.753906c20.054688-3.386719 35.886719-19.226562 39.28125-39.28125h-24.753906c-2.414063 6.777344-7.75 12.113281-14.527344 14.527344zm0 0" data-original="#000000" class="active-path" data-old_color="#51aecf" fill="#51aecf"/><path d="m189.703125 310.265625c-1.710937-6.707031-4.359375-13.097656-7.871094-18.992187l-2.574219-4.328126 9.644532-14.488281-13.351563-13.351562-14.488281 9.648437-4.328125-2.578125c-5.894531-3.511719-12.285156-6.167969-18.992187-7.871093l-4.886719-1.242188-3.40625-17.054688h-18.890625l-3.40625 17.054688-4.886719 1.242188c-6.707031 1.710937-13.097656 4.359374-18.992187 7.871093l-4.328126 2.578125-14.488281-9.648437-13.351562 13.351562 9.648437 14.488281-2.578125 4.328126c-3.511719 5.894531-6.167969 12.285156-7.871093 18.992187l-1.242188 4.886719-17.0625 3.40625v18.890625l17.054688 3.40625 1.242187 4.886719c1.710937 6.707031 4.359375 13.097656 7.871094 18.992187l2.574219 4.328125-9.644532 14.488281 13.351563 13.351563 14.488281-9.644532 4.328125 2.574219c5.894531 3.511719 12.285156 6.167969 18.992187 7.871094l4.886719 1.242187 3.40625 17.054688h18.890625l3.40625-17.054688 4.886719-1.242187c6.707031-1.710937 13.097656-4.359375 18.992187-7.871094l4.328126-2.574219 14.488281 9.644532 13.351562-13.351563-9.648437-14.488281 2.578125-4.328125c3.511719-5.894531 6.167969-12.285156 7.871093-18.992187l1.242188-4.886719 17.0625-3.40625v-18.890625l-17.054688-3.40625zm-69.703125 73.734375c-30.871094 0-56-25.128906-56-56s25.128906-56 56-56 56 25.128906 56 56-25.128906 56-56 56zm0 0" data-original="#000000" class="active-path" data-old_color="#51aecf" fill="#51aecf"/><path d="m64 0-64 64h64zm0 0" data-original="#000000" class="active-path" data-old_color="#51aecf" fill="#51aecf"/><path d="m152 127.28125v-24.753906c-9.289062-3.3125-16-12.113282-16-22.527344s6.710938-19.214844 16-22.527344v-24.753906c-22.664062 3.824219-40 23.539062-40 47.28125s17.335938 43.457031 40 47.28125zm0 0" data-original="#000000" class="active-path" data-old_color="#51aecf" fill="#51aecf"/><path d="m393.464844 225.425781c-.273438-1.609375-2.976563-1.683593-3.335938-.097656l-12.59375 56.679687c-1.839844 8.238282-9.015625 13.992188-17.445312 13.992188-8.488282 0-15.851563-6.039062-17.515625-14.359375l-4.742188-23.71875c-.433593-2.121094-3.921875-2.335937-4.609375-.289063l-11.382812 34.160157c-2.441406 7.304687-9.246094 12.207031-16.945313 12.207031h-.972656c-8.433594 0-15.601563-5.753906-17.441406-13.984375l-12.464844-56.054687c-.496094-2.199219-4.105469-2.402344-4.832031-.234376l-15.421875 46.273438h-50.671875l-5.035156 7.542969c2.304687 4.441406 4.226562 9.074219 5.746093 13.847656l20.199219 4.058594v14.550781h240v-48h-62.777344zm0 0" data-original="#000000" class="active-path" data-old_color="#51aecf" fill="#51aecf"/><path d="m160 328c0 22.089844-17.910156 40-40 40s-40-17.910156-40-40 17.910156-40 40-40 40 17.910156 40 40zm0 0" data-original="#000000" class="active-path" data-old_color="#51aecf" fill="#51aecf"/><path d="m400 32h16v96h-16zm0 0" data-original="#000000" class="active-path" data-old_color="#51aecf" fill="#51aecf"/><path d="m80 0v80h-80v240h16v-14.550781l20.191406-4.050781c1.511719-4.78125 3.441406-9.414063 5.746094-13.847657l-11.433594-17.144531 31.894532-31.894531 17.144531 11.433593c4.441406-2.304687 9.074219-4.226562 13.847656-5.746093l4.050781-20.191407h45.109375l4.050781 20.191407c4.78125 1.511719 9.414063 3.441406 13.847657 5.746093l17.144531-11.433593 25.496094 25.496093h39.148437l11.785157-35.34375c2.527343-7.566406 9.585937-12.65625 17.550781-12.65625 8.738281 0 16.167969 5.960938 18.074219 14.488282l12.457031 56.054687c.183593.855469.933593 1.464844 1.824219 1.464844h.972656c.808594 0 1.511718-.511719 1.777344-1.273437l11.382812-34.15625c2.496094-7.515626 9.511719-12.570313 17.441406-12.570313 8.726563 0 16.3125 6.207031 18.03125 14.777344l4.746094 23.726562c.34375 1.738281 3.261719 1.769531 3.65625.03125l12.582031-56.671875c1.816407-8.160156 8.921875-13.855468 17.28125-13.855468 8.6875 0 16.03125 6.214843 17.464844 14.792968l5.527344 33.207032h49.207031v-256.0000005h-384zm80 16c35.289062 0 64 28.710938 64 64s-28.710938 64-64 64-64-28.710938-64-64 28.710938-64 64-64zm-128 176h-16v-16h16zm384 0h-368v-16h368zm32 0h-16v-16h16zm0-48h-200v-16h8v-48h48v48h16v-80h48v80h16v-112h48v112h16zm0 0" data-original="#000000" class="active-path" data-old_color="#51aecf" fill="#51aecf"/><path d="m272 96h16v32h-16zm0 0" data-original="#000000" class="active-path" data-old_color="#51aecf" fill="#51aecf"/><path d="m336 64h16v64h-16zm0 0" data-original="#000000" class="active-path" data-old_color="#51aecf" fill="#51aecf"/></g> </svg>
