<?xml version="1.0"?>
<svg xmlns="http://www.w3.org/2000/svg" xmlns:xlink="http://www.w3.org/1999/xlink" version="1.1" id="Capa_1" x="0px" y="0px" viewBox="0 0 512 512" style="enable-background:new 0 0 512 512;" xml:space="preserve" width="512px" height="512px" class=""><g><g>
	<path d="M317,332c-8.262,0-15,6.724-15,15s6.738,15,15,15s15-6.724,15-15S325.262,332,317,332z" data-original="#000000" class="active-path" data-old_color="#51aecf" fill="#51aecf"/>
	<path d="M347,182c-90.967,0-165,74.019-165,165s74.033,165,165,165s165-74.019,165-165S437.967,182,347,182z M347,242   c8.284,0,15,6.714,15,15c0,8.284-6.716,15-15,15s-15-6.716-15-15C332,248.714,338.716,242,347,242z M347,452   c-8.284,0-15-6.716-15-15c0-8.286,6.716-15,15-15s15,6.714,15,15C362,445.284,355.284,452,347,452z M377,362h-17.761   c-0.524,1.465-1.084,2.89-1.75,4.279l12.539,12.537c5.859,5.859,5.859,15.352,0,21.211c-5.86,5.86-15.352,5.86-21.211,0   l-12.539-12.537c-1.388,0.665-2.813,1.225-4.277,1.747V407c0,8.291-6.709,15-15,15s-15-6.709-15-15v-17.763   c-1.465-0.521-2.89-1.082-4.277-1.747l-12.539,12.537c-5.86,5.86-15.352,5.86-21.211,0c-5.859-5.859-5.859-15.352,0-21.211   l12.539-12.537c-0.667-1.39-1.227-2.814-1.75-4.279H257c-8.291,0-15-6.709-15-15s6.709-15,15-15h17.761   c0.523-1.465,1.084-2.889,1.75-4.279l-12.539-12.537c-5.859-5.859-5.859-15.352,0-21.211s15.352-5.859,21.211,0l12.539,12.537   c1.388-0.665,2.813-1.225,4.277-1.747V287c0-8.291,6.709-15,15-15s15,6.709,15,15v17.763c1.465,0.522,2.889,1.082,4.277,1.747   l12.539-12.537c5.859-5.859,15.352-5.859,21.211,0s5.859,15.352,0,21.211l-12.539,12.537c0.667,1.39,1.227,2.814,1.75,4.279H377   c8.291,0,15,6.709,15,15S385.291,362,377,362z M422,422c-16.553,0-30-13.462-30-30s13.447-30,30-30s30,13.462,30,30   S438.553,422,422,422z M447.606,327.605c-5.86,5.86-15.352,5.86-21.211,0l-30-30c-5.859-5.859-5.859-15.352,0-21.211   s15.352-5.859,21.211,0l30,30C453.465,312.254,453.465,321.746,447.606,327.605z" data-original="#000000" class="active-path" data-old_color="#51aecf" fill="#51aecf"/>
	<path d="M287,161.543V54.5c0-12.427-10.075-22.5-22.5-22.5C252.074,32,242,42.073,242,54.5V167c0,8.284-6.716,15-15,15   c-8.284,0-15-6.716-15-15V22.5C212,10.073,201.925,0,189.5,0C177.074,0,167,10.073,167,22.5V167c0,8.284-6.716,15-15,15   c-8.284,0-15-6.716-15-15V54.5c0-12.427-10.075-22.5-22.5-22.5C102.074,32,92,42.073,92,54.5v217.295l-38.298-41.017   c-12.286-12.286-32.201-12.286-44.487-0.001C-2.236,242.225-3.123,260.496,7.161,273l114.605,143.243   c2.842,3.633,7.178,5.757,11.807,5.757h33.472C157.38,398.896,152,373.569,152,347C152,260.42,208.766,186.924,287,161.543z" data-original="#000000" class="active-path" data-old_color="#51aecf" fill="#51aecf"/>
	<path d="M362,152.76V84.5c0-12.427-10.075-22.5-22.5-22.5C327.074,62,317,72.073,317,84.5v70.054   c9.807-1.525,19.775-2.554,30-2.554C352.061,152,357.034,152.379,362,152.76z" data-original="#000000" class="active-path" data-old_color="#51aecf" fill="#51aecf"/>
</g></g> </svg>
