<?xml version="1.0"?>
<svg xmlns="http://www.w3.org/2000/svg" height="512px" viewBox="0 0 480 480" width="512px"><g><path d="m194.230469 384h285.769531v-96h-201.433594l3.457032-10.496094c3.351562-10.183594 5.214843-20.777344 5.746093-31.550781-10.523437 6.503906-22.59375 10.046875-35.289062 10.046875-24.527344 0-44.480469-19.953125-44.480469-44.480469 0-9.542969-4.742188-18.398437-12.679688-23.695312l-15.511718-10.34375c-12.402344-8.265625-19.808594-22.097657-19.808594-37 0-7.160157 1.816406-14.097657 5.089844-20.328125-14.296875.34375-27.960938 3.199218-40.609375 8.144531l11.992187 17.984375c4.925782 7.390625 7.527344 16 7.527344 24.871094v12.847656c0 8.824219 7.175781 16 16 16 17.648438 0 32 14.351562 32 32s-14.351562 32-32 32h-42.464844c-16.375 0-30.886718-9.824219-36.96875-25.03125-3.628906-9.097656-12.308594-14.96875-22.101562-14.96875-3.066406 0-6.105469-.375-9.105469-1.0625-.800781 5.582031-1.359375 11.253906-1.359375 17.0625 0 20.519531 5.191406 39.847656 14.3125 56.761719 5.359375-4.25 11.101562-7.785157 17.230469-10.417969 9.832031-4.207031 20.234375-6.34375 30.921875-6.34375h31.648437c19.023438 0 36.125 10.566406 44.621094 27.574219 3.441406 6.898437 5.265625 14.609375 5.265625 22.3125v27.617187c4.558594-.929687 9.070312-2.023437 13.503906-3.480468l5 15.199218c-13.679687 4.496094-27.984375 6.777344-42.503906 6.777344-74.992188 0-136-61.007812-136-136s61.007812-136 136-136 136 61.007812 136 136c0 10.847656-1.273438 21.574219-3.792969 32h35.792969v-49.753906l-17.65625-4.414063-.917969-5.078125c-3.890625-21.464844-12.128906-41.378906-24.472656-59.1875l-2.9375-4.246094 9.335937-15.558593-25.113281-25.113281-15.558593 9.335937-4.238282-2.945313c-3.328125-2.304687-6.792968-4.320312-10.265625-6.335937l31.945313-44.703125h131.878906v-16h-16v-48h-16v48h-16v-32h-16v32h-16v-48h-16v48h-16v-16h-16v16h-12.121094l-38.101562 53.34375c-10.976563-4.878906-22.472656-8.582031-34.53125-10.769531l-5.078125-.917969-4.40625-17.65625h-35.523438l-4.414062 17.65625-5.082031.917969c-21.46875 3.890625-41.375 12.128906-59.183594 24.472656l-4.238282 2.945313-15.558593-9.335938-25.113281 25.105469 9.335937 15.558593-2.9375 4.246094c-12.34375 17.808594-20.574219 37.722656-24.472656 59.1875l-.917969 5.078125-17.65625 4.414063v35.507812l17.65625 4.414063.917969 5.078125c3.890625 21.464844 12.128906 41.378906 24.472656 59.1875l2.9375 4.246094-9.335937 15.558593 25.113281 25.113281 15.558593-9.335937 4.238282 2.945313c17.816406 12.34375 37.722656 20.574218 59.183594 24.472656l5.082031.917968 4.414062 17.648438h11.992188l24 72h157.769531v-16h-16v-32h-16v32h-16v-16h-16v16h-16v-48h-16v48h-16v-32h-16v32h-18.230469l-18.671875-56h7.132813zm45.769531-16h-16v-64h16zm208-64h16v64h-16zm-32 0h16v64h-16zm-64 16c0-8.824219 7.175781-16 16-16h16c8.824219 0 16 7.175781 16 16v32c0 8.824219-7.175781 16-16 16h-16c-8.824219 0-16-7.175781-16-16zm-32-16h16v64h-16zm-32 0c8.824219 0 16 7.175781 16 16v32c0 8.824219-7.175781 16-16 16h-16c-8.824219 0-16-7.175781-16-16v-32c0-8.824219 7.175781-16 16-16zm-80-16v-16h56v16zm0 0" data-original="#000000" class="active-path" data-old_color="#51aecf" fill="#51aecf"/><path d="m272 320h16v32h-16zm0 0" data-original="#000000" class="active-path" data-old_color="#51aecf" fill="#51aecf"/><path d="m168 360c2.679688 0 5.34375-.136719 8-.3125v-29.800781c0-5.230469-1.230469-10.472657-3.574219-15.160157-5.777343-11.550781-17.394531-18.726562-30.3125-18.726562h-31.648437c-8.503906 0-16.792969 1.695312-24.609375 5.046875-5.304688 2.273437-10.296875 5.378906-14.910157 9.234375 21.824219 30.0625 57.144532 49.71875 97.054688 49.71875zm0 0" data-original="#000000" class="active-path" data-old_color="#51aecf" fill="#51aecf"/><path d="m183.96875 121.191406c-5.015625 5.289063-7.96875 12.089844-7.96875 19.289063 0 9.542969 4.742188 18.398437 12.679688 23.695312l15.511718 10.34375c12.402344 8.265625 19.808594 22.097657 19.808594 37 0 15.703125 12.777344 28.480469 28.480469 28.480469 13 0 25.167969-4.824219 34.703125-13.574219-6.183594-54.523437-49.023438-97.976562-103.214844-105.234375zm0 0" data-original="#000000" class="active-path" data-old_color="#51aecf" fill="#51aecf"/><path d="m368 320h16v32h-16zm0 0" data-original="#000000" class="active-path" data-old_color="#51aecf" fill="#51aecf"/><path d="m123.160156 155.160156-13.351562-20.015625c-27.542969 15.34375-48.367188 41.222657-57.160156 72.144531 1.925781.464844 3.871093.710938 5.816406.710938 16.375 0 30.886718 9.824219 36.96875 25.03125 3.628906 9.097656 12.308594 14.96875 22.101562 14.96875h42.464844c8.824219 0 16-7.175781 16-16s-7.175781-16-16-16c-17.648438 0-32-14.351562-32-32v-12.839844c0-5.710937-1.671875-11.25-4.839844-16zm0 0" data-original="#000000" class="active-path" data-old_color="#51aecf" fill="#51aecf"/></g> </svg>
