<?xml version="1.0"?>
<svg xmlns="http://www.w3.org/2000/svg" height="512px" viewBox="-61 0 512 512" width="512px" class=""><g><path d="m90 240h210v182h-210zm0 0" data-original="#000000" class="active-path" data-old_color="#51aecf" fill="#51aecf"/><path d="m390 150v-30h-60v-30h58.492188c-6.96875-34.191406-37.273438-60-73.492188-60h-35.128906c3.316406 9.382812 5.128906 19.480469 5.128906 30 0 49.707031-40.292969 90-90 90s-90-40.292969-90-90c0-10.519531 1.8125-20.617188 5.128906-30h-35.128906c-36.21875 0-66.523438 25.808594-73.492188 60h58.492188v30h-60v30h60v30h-60v257c0 41.355469 33.644531 75 75 75h240c41.355469 0 75-33.644531 75-75v-257h-60v-30zm-60 302h-270v-242h270zm0 0" data-original="#000000" class="active-path" data-old_color="#51aecf" fill="#51aecf"/><path d="m195 120c33.136719 0 60-26.863281 60-60s-26.863281-60-60-60-60 26.863281-60 60 26.863281 60 60 60zm0-75c8.285156 0 15 6.714844 15 15s-6.714844 15-15 15-15-6.714844-15-15 6.714844-15 15-15zm0 0" data-original="#000000" class="active-path" data-old_color="#51aecf" fill="#51aecf"/></g> </svg>
