<?xml version="1.0"?>
<svg xmlns="http://www.w3.org/2000/svg" height="512px" viewBox="0 0 464 464" width="512px" class=""><g><path d="m144 283.886719 3.199219-2.402344c.496093-.367187 5.03125-3.679687 12.800781-7.789063v-41.808593c0-39.703125 32.304688-72 72-72s72 32.296875 72 72v41.808593c7.777344 4.109376 12.3125 7.421876 12.800781 7.789063l3.199219 2.402344v27.496093l72-49.847656v-133.648437h-320v133.65625l72 49.847656zm176-140h56v16h-56zm0 32h56v16h-56zm0 32h56v16h-56zm-232-64h56v16h-56zm0 32h56v16h-56zm0 32h56v16h-56zm0 0" data-original="#000000" class="active-path" data-old_color="#51aecf" fill="#51aecf"/><path d="m248 319.886719c0 8.835937-7.164062 16-16 16s-16-7.164063-16-16c0-8.835938 7.164062-16 16-16s16 7.164062 16 16zm0 0" data-original="#000000" class="active-path" data-old_color="#51aecf" fill="#51aecf"/><path d="m208 231.886719v25.933593c7.480469-1.183593 15.472656-1.933593 24-1.933593s16.519531.75 24 1.933593v-25.933593c0-13.234375-10.769531-24-24-24s-24 10.765625-24 24zm0 0" data-original="#000000" class="active-path" data-old_color="#51aecf" fill="#51aecf"/><path d="m288 266.421875v-34.535156c0-30.871094-25.121094-56-56-56s-56 25.128906-56 56v34.535156c4.816406-1.863281 10.167969-3.648437 16-5.214844v-29.320312c0-22.058594 17.945312-40 40-40s40 17.941406 40 40v29.328125c5.832031 1.566406 11.183594 3.34375 16 5.207031zm0 0" data-original="#000000" class="active-path" data-old_color="#51aecf" fill="#51aecf"/><path d="m392 63.886719h-320v48h320zm-288 32h-16v-16h16zm32 0h-16v-16h16zm32 0h-16v-16h16zm0 0" data-original="#000000" class="active-path" data-old_color="#51aecf" fill="#51aecf"/><path d="m240.191406 3.199219c-4.421875-4.265625-11.96875-4.265625-16.390625 0l-46.28125 44.6875h108.960938zm0 0" data-original="#000000" class="active-path" data-old_color="#51aecf" fill="#51aecf"/><path d="m408 165.222656v85.238282l51.425781-35.597657zm0 0" data-original="#000000" class="active-path" data-old_color="#51aecf" fill="#51aecf"/><path d="m234.296875 431.550781-2.296875.6875-2.296875-.6875c-29.253906-8.777343-52.992187-27.640625-68.015625-52.144531l-140.808594 84.480469h422.242188l-140.800782-84.488281c-15.03125 24.511718-38.769531 43.375-68.023437 52.152343zm0 0" data-original="#000000" class="active-path" data-old_color="#51aecf" fill="#51aecf"/><path d="m318.960938 331.558594c-1.472657 11.792968-4.585938 23.101562-9.226563 33.640625l154.265625 92.558593v-226.601562zm0 0" data-original="#000000" class="active-path" data-old_color="#51aecf" fill="#51aecf"/><path d="m160 316.367188c0 45.589843 28.832031 85.144531 72 99.144531 43.167969-14 72-53.546875 72-99.144531v-24.203126c-8.910156-5.597656-35.769531-20.277343-72-20.277343-36.214844 0-63.070312 14.671875-72 20.269531zm72-28.480469c17.648438 0 32 14.351562 32 32 0 14.871093-10.238281 27.289062-24 30.863281v49.136719h-16v-49.136719c-13.761719-3.574219-24-15.992188-24-30.863281 0-17.648438 14.351562-32 32-32zm0 0" data-original="#000000" class="active-path" data-old_color="#51aecf" fill="#51aecf"/><path d="m56 165.222656-51.425781 49.640625 51.425781 35.597657zm0 0" data-original="#000000" class="active-path" data-old_color="#51aecf" fill="#51aecf"/><path d="m145.039062 331.566406-145.039062-100.410156v226.601562l154.265625-92.558593c-4.648437-10.539063-7.761719-21.839844-9.226563-33.632813zm0 0" data-original="#000000" class="active-path" data-old_color="#51aecf" fill="#51aecf"/></g> </svg>
