<?xml version="1.0"?>
<svg xmlns="http://www.w3.org/2000/svg" height="512px" viewBox="0 0 496 496" width="512px" class=""><g><path d="m32 160v144h144v-144zm56 64c0-8.824219 7.175781-16 16-16s16 7.175781 16 16-7.175781 16-16 16-16-7.175781-16-16zm16 32c19.3125 0 35.472656 13.769531 39.191406 32h-78.382812c3.71875-18.230469 19.878906-32 39.191406-32zm56 32h-.640625c-2.726563-18.945312-14.933594-34.816406-31.679687-42.671875 5.121093-5.671875 8.320312-13.105469 8.320312-21.328125 0-17.648438-14.351562-32-32-32s-32 14.351562-32 32c0 8.222656 3.199219 15.65625 8.320312 21.328125-16.746093 7.855469-28.953124 23.726563-31.679687 42.671875h-.640625v-112h112zm0 0" data-original="#000000" class="active-path" data-old_color="#51aecf" fill="#51aecf"/><path d="m32 320h144v16h-144zm0 0" data-original="#000000" class="active-path" data-old_color="#51aecf" fill="#51aecf"/><path d="m32 352h144v16h-144zm0 0" data-original="#000000" class="active-path" data-old_color="#51aecf" fill="#51aecf"/><path d="m32 384h144v16h-144zm0 0" data-original="#000000" class="active-path" data-old_color="#51aecf" fill="#51aecf"/><path d="m32 448h144v16h-144zm0 0" data-original="#000000" class="active-path" data-old_color="#51aecf" fill="#51aecf"/><path d="m32 416h16v16h-16zm0 0" data-original="#000000" class="active-path" data-old_color="#51aecf" fill="#51aecf"/><path d="m64 416h16v16h-16zm0 0" data-original="#000000" class="active-path" data-old_color="#51aecf" fill="#51aecf"/><path d="m96 416h80v16h-80zm0 0" data-original="#000000" class="active-path" data-old_color="#51aecf" fill="#51aecf"/><path d="m224 160h144v16h-144zm0 0" data-original="#000000" class="active-path" data-old_color="#51aecf" fill="#51aecf"/><path d="m224 192h144v16h-144zm0 0" data-original="#000000" class="active-path" data-old_color="#51aecf" fill="#51aecf"/><path d="m224 224h144v16h-144zm0 0" data-original="#000000" class="active-path" data-old_color="#51aecf" fill="#51aecf"/><path d="m288 256h16v16h-16zm0 0" data-original="#000000" class="active-path" data-old_color="#51aecf" fill="#51aecf"/><path d="m320 256h16v16h-16zm0 0" data-original="#000000" class="active-path" data-old_color="#51aecf" fill="#51aecf"/><path d="m352 256h16v16h-16zm0 0" data-original="#000000" class="active-path" data-old_color="#51aecf" fill="#51aecf"/><path d="m400 336v-336h-400v496h496v-160zm-256-256v24h-77.769531c-3.109375 0-5.949219-1.824219-7.253907-4.648438l-38.472656-83.351562h358.992188l-38.472656 83.34375c-1.304688 2.832031-4.152344 4.65625-7.253907 4.65625h-77.769531v-24zm16 48v-32h80v32zm-144-83.574219 28.449219 61.628907c3.910156 8.472656 12.460937 13.945312 21.78125 13.945312h77.769531v24h48v112h16v-112h48v-24h77.769531c9.320313 0 17.871094-5.472656 21.789063-13.945312l28.441406-61.628907v291.574219h-12l-24-32h-100v176h-40v-208h-16v208h-176zm336 291.574219h-88v-16h76zm128 144h-216v-128h216zm0 0" data-original="#000000" class="active-path" data-old_color="#51aecf" fill="#51aecf"/><path d="m400 416h64v16h-64zm0 0" data-original="#000000" class="active-path" data-old_color="#51aecf" fill="#51aecf"/><path d="m400 448h64v16h-64zm0 0" data-original="#000000" class="active-path" data-old_color="#51aecf" fill="#51aecf"/></g> </svg>
