<svg height="464pt" viewBox="0 0 464 464" width="464pt" xmlns="http://www.w3.org/2000/svg"><path d="m232 48h-176c-4.40625 0-8 3.59375-8 8v128c0 4.40625 3.59375 8 8 8h24v-23.753906c0-13.15625 7.894531-24.820313 20.113281-29.710938l15.628907-6.253906c-7.246094-7.242188-11.742188-17.25-11.742188-28.28125 0-22.054688 17.945312-40 40-40s40 17.945312 40 40c0 11.03125-4.496094 21.039062-11.742188 28.289062l15.628907 6.246094c12.21875 4.890625 20.113281 16.554688 20.113281 29.710938v23.753906h24c4.40625 0 8-3.59375 8-8v-128c0-4.40625-3.59375-8-8-8zm0 0"/><path d="m168 104c0 13.253906-10.746094 24-24 24s-24-10.746094-24-24 10.746094-24 24-24 24 10.746094 24 24zm0 0"/><path d="m181.945312 153.390625-23.480468-9.390625h-28.921875l-23.480469 9.390625c-6.109375 2.441406-10.0625 8.273437-10.0625 14.855469v23.753906h96v-23.753906c0-6.582032-3.953125-12.414063-10.054688-14.855469zm0 0"/><path d="m288 0h-288v304h80v80h48v-128h160zm-32 184c0 13.230469-10.769531 24-24 24h-176c-13.230469 0-24-10.769531-24-24v-128c0-13.230469 10.769531-24 24-24h176c13.230469 0 24 10.769531 24 24zm0 0"/><path d="m64 384v-64h-64zm0 0"/><path d="m464 288v-48h-131.054688l-16 32h-172.945312v16h248v16h-248v152c0 4.414062 3.59375 8 8 8h304c4.40625 0 8-3.585938 8-8v-152h-56v-16zm-104 160h-72v-16h72zm0-32h-72v-16h72zm0-32h-16v-16h16zm56 64h-40v-16h40zm32 0h-16v-16h16zm0-32h-72v-16h72zm0-48v16h-72v-16zm0 0"/></svg>