<?xml version="1.0"?>
<svg xmlns="http://www.w3.org/2000/svg" height="512px" viewBox="0 0 464 464" width="512px" class=""><g><path d="m256 191.054688v-127.054688h-16.527344c.3125 1.6875.527344 3.40625.527344 5.183594 0 2.550781-.335938 5.121094-1.007812 7.601562l-26.902344 99.558594c10.910156.792969 21.695312 3.601562 31.496094 8.496094zm0 0" data-original="#000000" class="active-path" data-old_color="#51aecf" fill="#51aecf"/><path d="m0 440c0 13.230469 10.769531 24 24 24h208c13.230469 0 24-10.769531 24-24v-24h-256zm80-8h96v16h-96zm0 0" data-original="#000000" class="active-path" data-old_color="#51aecf" fill="#51aecf"/><path d="m216 264c0-4.414062-3.585938-8-8-8h-17.441406l-4.328125 16h21.769531c4.414062 0 8-3.585938 8-8zm0 0" data-original="#000000" class="active-path" data-old_color="#51aecf" fill="#51aecf"/><path d="m208.214844 40h2.59375c7.726562 0 14.726562 3.070312 19.953125 8h25.238281v-24c0-13.230469-10.769531-24-24-24h-208c-13.230469 0-24 10.769531-24 24v24h188.296875c5.289063-4.96875 12.3125-8 19.917969-8zm0 0" data-original="#000000" class="active-path" data-old_color="#51aecf" fill="#51aecf"/><path d="m223.535156 72.632812c.304688-1.128906.464844-2.289062.464844-3.449218 0-7.273438-5.910156-13.183594-13.183594-13.183594h-2.59375c-5.941406 0-11.175781 4.007812-12.734375 9.753906l-9.183593 33.980469 27.4375 9.144531zm0 0" data-original="#000000" class="active-path" data-old_color="#51aecf" fill="#51aecf"/><path d="m173.527344 147-33.773438 125h29.902344l31.3125-115.847656zm0 0" data-original="#000000" class="active-path" data-old_color="#51aecf" fill="#51aecf"/><path d="m209.558594 124.351562-27.4375-9.152343-4.417969 16.335937 27.441406 9.152344zm0 0" data-original="#000000" class="active-path" data-old_color="#51aecf" fill="#51aecf"/><path d="m135.785156 360c5.941406 0 11.175782-4.007812 12.734375-9.753906l5.832031-21.589844c-2.960937-.382812-5.9375-.65625-8.945312-.65625h-20.789062l-4.152344 15.367188c-.304688 1.128906-.464844 2.289062-.464844 3.449218 0 7.273438 5.910156 13.183594 13.183594 13.183594zm0 0" data-original="#000000" class="active-path" data-old_color="#51aecf" fill="#51aecf"/><path d="m284.425781 223.160156-48-24c-8.859375-4.425781-18.707031-6.800781-28.59375-7.054687l-12.953125 47.894531h13.121094c13.230469 0 24 10.769531 24 24s-10.769531 24-24 24h-88c-13.230469 0-24 10.769531-24 24h49.40625c10.722656 0 21.195312 2.015625 31.121094 6l12.898437 5.152344c8.03125 3.214844 16.496094 4.847656 25.167969 4.847656h39.511719c10.460937 0 20.941406-2.480469 30.308593-7.160156 11.59375-5.785156 24.546876-8.839844 37.472657-8.839844h14.113281v-80h-14.113281c-12.925781 0-25.878907-3.054688-37.460938-8.839844zm0 0" data-original="#000000" class="active-path" data-old_color="#51aecf" fill="#51aecf"/><path d="m352 328h16v-112h-16zm0 0" data-original="#000000" class="active-path" data-old_color="#51aecf" fill="#51aecf"/><path d="m80 281.375c0 4.449219 2.0625 8.410156 5.296875 11.113281 6.871094-12.160156 19.765625-20.488281 34.703125-20.488281h3.167969l14.761719-54.617188-53.648438 53.648438c-2.722656 2.722656-4.28125 6.488281-4.28125 10.34375zm0 0" data-original="#000000" class="active-path" data-old_color="#51aecf" fill="#51aecf"/><path d="m214.59375 344c-10.722656 0-21.195312-2.015625-31.121094-6l-12.898437-5.152344c-.238281-.09375-.476563-.160156-.71875-.246094l-5.894531 21.824219c-3.449219 12.710938-15.03125 21.574219-28.175782 21.574219h-1.546875l-2.484375 9.9375-15.515625-3.875 2.515625-10.039062c-8.769531-5.039063-14.753906-14.390626-14.753906-25.207032 0-2.550781.335938-5.121094 1.007812-7.601562l3.023438-11.214844h-12.03125c-5.894531 0-11-3.238281-13.777344-8h-66.222656v-16h58.03125c-4.640625-4.207031-7.863281-9.761719-9.230469-16h-48.800781v-16h49.609375c1.46875-4.566406 3.878906-8.792969 7.367187-12.28125l3.710938-3.71875h-60.6875v-16h76.6875l16-16h-92.6875v-16h108.6875l21.625-21.625 33.070312-122.375h-179.382812v336h256v-56.113281c-.632812.015625-1.257812.113281-1.886719.113281zm-166.59375-264h104v16h-104zm0 32h104v16h-104zm-32-32h16v16h-16zm0 32h16v16h-16zm0 32h104v16h-104zm0 32h104v16h-104zm0 0" data-original="#000000" class="active-path" data-old_color="#51aecf" fill="#51aecf"/><path d="m384 216v112h80v-112zm0 0" data-original="#000000" class="active-path" data-old_color="#51aecf" fill="#51aecf"/></g> </svg>
