<?xml version="1.0"?>
<svg xmlns="http://www.w3.org/2000/svg" xmlns:xlink="http://www.w3.org/1999/xlink" version="1.1" id="Layer_1" x="0px" y="0px" viewBox="0 0 495.985 495.985" style="enable-background:new 0 0 495.985 495.985;" xml:space="preserve" width="512px" height="512px" class=""><g><g>
	<g>
		<g>
			<rect x="319.992" y="87.985" width="16" height="16" data-original="#000000" class="active-path" data-old_color="#51aecf" fill="#51aecf"/>
			<rect x="375.992" y="87.985" width="16" height="16" data-original="#000000" class="active-path" data-old_color="#51aecf" fill="#51aecf"/>
			<path d="M431.992,183.985c30.872,0,56-25.12,56-56s-25.128-56-56-56c-3.8,0-7.56,0.384-11.256,1.144     c-5.328-6.672-11.608-12.352-18.472-17.144h37.728v-16h-39.04l35.688-25.488l-9.296-13.024l-56.784,40.56     c-6.048-1.312-12.264-2.048-18.568-2.048c-4.088,0-8.128,0.384-12.12,0.944L284.641,1.473l-9.296,13.024l35.688,25.488h-39.04v16     h29.728c-6.856,4.792-13.144,10.472-18.464,17.144c-3.704-0.76-7.464-1.144-11.264-1.144c-30.872,0-56,25.12-56,56     s25.128,56,56,56c3.8,0,7.568-0.384,11.272-1.144c1.92,2.376,4,4.68,6.216,6.896c-15.04,11.568-27.152,27.024-35.664,44.768     l-33.36-33.36l-6.952-40.904l-96.664-96.656l5.656-5.656c4.528-4.528,7.032-10.56,7.032-16.976c0-6.408-2.496-12.44-7.032-16.976     c-9.352-9.336-24.568-9.352-33.936,0l-11.312,11.32L48.961,7.017c-9.36-9.36-24.576-9.352-33.936,0     c-4.536,4.528-7.032,10.56-7.032,16.968s2.496,12.44,7.032,16.968l28.28,28.288L31.993,80.553     c-4.528,4.536-7.032,10.56-7.032,16.976s2.504,12.432,7.032,16.96c4.528,4.536,10.56,7.032,16.968,7.032     c6.416,0,12.448-2.496,16.968-7.032l5.664-5.664l96.664,96.664l40.896,6.96l38.152,38.152     c-4.736,14.288-7.312,29.616-7.312,45.384c0,67.304,45.72,122.52,103.52,127.512c-3.736,31.752-30.776,56.488-63.52,56.488     c-35.288,0-64-28.712-64-64v-80h-16v80c0,44.112,35.888,80,80,80c41.56,0,75.792-31.864,79.616-72.44     c58.208-4.512,104.384-59.92,104.384-127.56c0-42.864-18.736-82.6-49.496-106.248c2.216-2.216,4.296-4.52,6.216-6.896     C424.424,183.601,428.193,183.985,431.992,183.985z M26.336,29.641c-1.512-1.512-2.344-3.52-2.344-5.656s0.832-4.144,2.344-5.656     c1.56-1.56,3.608-2.344,5.656-2.344s4.096,0.784,5.656,2.336l28.288,28.28l-8.8,8.8l-2.52,2.528L26.336,29.641z M54.609,103.185     c-3.016,3.008-8.272,3.024-11.304-0.008c-1.512-1.504-2.344-3.512-2.344-5.656c0-2.144,0.832-4.144,2.344-5.656l40.408-40.408     l4.848-4.848l11.312-11.312c1.56-1.56,3.608-2.336,5.656-2.336s4.096,0.776,5.656,2.336c3.12,3.12,3.12,8.192,0,11.32     L54.609,103.185z M175.961,190.585L82.904,97.521l22.624-22.632l11.312,11.312l-11.312,11.312l11.312,11.312l11.312-11.312     l11.312,11.312l-11.32,11.312l11.312,11.312l11.32-11.312l11.312,11.312l-11.312,11.312l11.312,11.312l11.312-11.312     l11.312,11.312l-11.312,11.312l11.312,11.312l11.312-11.312l2.552,2.552l4.64,27.272L175.961,190.585z M414.361,164.369     l-3.368,4.808c-3.824,5.456-8.648,10.528-14.352,15.08l-8.824,7.032l9.544,6c31.232,19.6,50.632,57.416,50.632,98.696     c0,61.76-43.064,112-96,112c-52.936,0-96-50.24-96-112c0-11.192,1.472-22.12,4.176-32.512l46.168,46.168l11.312-11.312     l-51.768-51.768c8.688-20.592,22.728-37.976,40.736-49.28l9.544-6l-8.824-7.032c-5.704-4.552-10.528-9.624-14.352-15.08     l-3.368-4.808l-5.592,1.768c-3.888,1.232-7.936,1.856-12.032,1.856c-22.056,0-40-17.944-40-40c0-22.056,17.944-40,40-40     c4.096,0,8.144,0.624,12.04,1.848l5.592,1.768l3.368-4.808c13.496-19.288,35.56-30.808,59-30.808s45.504,11.52,59,30.808     l3.368,4.808l5.592-1.768c3.896-1.224,7.944-1.848,12.04-1.848c22.056,0,40,17.944,40,40c0,22.056-17.944,40-40,40     c-4.096,0-8.144-0.624-12.04-1.848L414.361,164.369z" data-original="#000000" class="active-path" data-old_color="#51aecf" fill="#51aecf"/>
			<path d="M199.993,319.985h16v-32c0-30.88-25.128-56-56-56s-56,25.12-56,56v56h16v-56c0-22.056,17.944-40,40-40     c22.056,0,40,17.944,40,40V319.985z" data-original="#000000" class="active-path" data-old_color="#51aecf" fill="#51aecf"/>
		</g>
	</g>
</g></g> </svg>
