<?xml version="1.0"?>
<svg xmlns="http://www.w3.org/2000/svg" height="512px" viewBox="0 0 512 512" width="512px" class=""><g><path d="m492 244c-6.1875 0-13.546875-16-38-16-8.105469 0-14.480469 1.855469-19.5625 4.304688-4.1875-31.726563-16.675781-60.867188-35.199219-85.175782 4.550781-11.742187 2-19.398437 5.253907-22.652344 4.375-4.371093 20.894531 1.734376 38.183593-15.554687 7.8125-7.8125 7.8125-20.472656.003907-28.285156-7.8125-7.808594-20.476563-7.808594-28.285157 0-4.375 4.375-20.894531-1.734375-38.183593 15.554687-5.761719 5.761719-8.972657 11.617188-10.828126 16.960938-24.269531-18.628906-53.394531-31.21875-85.125-35.511719-5.25-11.8125-12.257812-14.871094-12.257812-19.640625 0-6.1875 16-13.550781 16-38 0-11.046875-8.953125-20-20-20s-20 8.953125-20 20c0 6.1875-16 13.550781-16 38 0 8.105469 1.855469 14.480469 4.304688 19.5625-31.726563 4.1875-60.867188 16.675781-85.175782 35.199219-11.496094-4.457031-19.476562-2.078125-22.652344-5.253907-4.371093-4.375 1.734376-20.894531-15.554687-38.1875-7.8125-7.808593-20.476563-7.808593-28.285156 0-7.8125 7.8125-7.8125 20.476563 0 28.285157 4.375 4.375-1.734375 20.894531 15.558593 38.183593 5.757813 5.761719 11.613282 8.972657 16.957032 10.824219-18.628906 24.269531-31.21875 53.398438-35.511719 85.128907-11.8125 5.246093-14.875 12.257812-19.640625 12.257812-6.1875 0-13.546875-16-38-16-11.046875 0-20 8.953125-20 20s8.953125 20 20 20c6.1875 0 13.546875 16 38 16 8.105469 0 14.480469-1.855469 19.5625-4.304688 4.1875 31.726563 16.675781 60.867188 35.199219 85.175782-4.550781 11.742187-2 19.398437-5.253907 22.652344-4.375 4.371093-20.894531-1.734376-38.183593 15.554687-7.8125 7.8125-7.8125 20.472656-.003907 28.285156 7.8125 7.808594 20.472657 7.8125 28.285157 0 4.375-4.375 20.894531 1.734375 38.183593-15.554687 5.761719-5.761719 8.972657-11.617188 10.828126-16.960938 24.269531 18.628906 53.394531 31.21875 85.125 35.511719 5.25 11.8125 12.257812 14.871094 12.257812 19.640625 0 6.1875-16 13.550781-16 38 0 11.046875 8.953125 20 20 20s20-8.953125 20-20c0-6.1875 16-13.550781 16-38 0-8.105469-1.855469-14.480469-4.304688-19.5625 31.726563-4.1875 60.867188-16.675781 85.175782-35.199219 11.496094 4.457031 19.476562 2.078125 22.652344 5.253907 4.371093 4.375-1.734376 20.894531 15.554687 38.1875 7.8125 7.808593 20.476563 7.808593 28.285156 0 7.8125-7.8125 7.8125-20.476563 0-28.285157-4.375-4.375 1.734375-20.894531-15.558593-38.183593-5.757813-5.761719-11.613282-8.972657-16.957032-10.824219 18.628906-24.269531 31.21875-53.398438 35.511719-85.128907 11.8125-5.246093 14.875-12.257812 19.640625-12.257812 6.1875 0 13.546875 16 38 16 11.046875 0 20-8.953125 20-20s-8.953125-20-20-20zm-236 152c-77.195312 0-140-62.804688-140-140s62.804688-140 140-140 140 62.804688 140 140-62.804688 140-140 140zm0-214.351562c-40.996094 0-74.351562 33.355468-74.351562 74.351562s33.355468 74.351562 74.351562 74.351562 74.351562-33.355468 74.351562-74.351562-33.355468-74.351562-74.351562-74.351562zm0 108.703124c-18.941406 0-34.351562-15.410156-34.351562-34.351562s15.410156-34.351562 34.351562-34.351562 34.351562 15.410156 34.351562 34.351562-15.410156 34.351562-34.351562 34.351562zm0 0" data-original="#000000" class="active-path" data-old_color="#51aecf" fill="#51aecf"/></g> </svg>
