<?xml version="1.0"?>
<svg xmlns="http://www.w3.org/2000/svg" height="512px" viewBox="0 -15 512.00038 512" width="512px" class=""><g><path d="m227.070312 152.585938c0 15.859374 12.902344 28.757812 28.757813 28.757812 15.859375 0 28.757813-12.898438 28.757813-28.757812 0-15.855469-12.898438-28.757813-28.757813-28.757813-15.855469 0-28.757813 12.902344-28.757813 28.757813zm42.515626 0c0 7.585937-6.171876 13.757812-13.757813 13.757812s-13.753906-6.171875-13.753906-13.757812c0-7.585938 6.167969-13.757813 13.753906-13.757813s13.757813 6.171875 13.757813 13.757813zm0 0" data-original="#000000" class="active-path" data-old_color="#51aecf" fill="#51aecf"/><path d="m254.808594 273.851562c-13.136719 0-23.820313 10.683594-23.820313 23.820313s10.683594 23.820313 23.820313 23.820313c13.132812 0 23.820312-10.683594 23.820312-23.820313s-10.683594-23.820313-23.820312-23.820313zm0 32.640626c-4.863282 0-8.820313-3.957032-8.820313-8.820313s3.957031-8.820313 8.820313-8.820313c4.863281 0 8.820312 3.957032 8.820312 8.820313s-3.957031 8.820313-8.820312 8.820313zm0 0" data-original="#000000" class="active-path" data-old_color="#51aecf" fill="#51aecf"/><path d="m136.386719 103.078125c12.714843-3.410156 20.253906-16.457031 16.84375-29.175781-3.40625-12.714844-16.457031-20.253906-29.175781-16.84375-12.6875 3.398437-20.242188 16.484375-16.84375 29.175781 3.398437 12.679687 16.480468 20.242187 29.175781 16.84375zm-6.152344-31.835937c3.804687 0 7.429687 2.523437 8.503906 6.542968 1.261719 4.707032-1.527343 9.539063-6.234375 10.800782-4.703125 1.257812-9.542968-1.539063-10.804687-6.234376-1.488281-5.566406 2.699219-11.109374 8.535156-11.109374zm0 0" data-original="#000000" class="active-path" data-old_color="#51aecf" fill="#51aecf"/><path d="m381.816406 104.492188c10.21875 0 19.992188-6.746094 22.941406-17.554688 3.46875-12.703125-4-25.789062-16.703124-29.257812-12.671876-3.457032-25.796876 4.035156-29.257813 16.707031-4.109375 15.058593 7.222656 30.105469 23.019531 30.105469zm-8.542968-26.152344c1.277343-4.691406 6.136718-7.46875 10.828124-6.1875 4.703126 1.285156 7.472657 6.128906 6.1875 10.832031-1.28125 4.691406-6.140624 7.46875-10.832031 6.183594-4.691406-1.28125-7.464843-6.136719-6.183593-10.828125zm0 0" data-original="#000000" class="active-path" data-old_color="#51aecf" fill="#51aecf"/><path d="m177.535156 142.734375c-13.113281-11.101563-23.878906-22.085937-31.347656-32.191406l-12.066406 8.917969c7.683594 10.394531 18.527344 21.59375 31.628906 32.882812-20.539062 17.539062-55.785156 52.515625-42.425781 75.910156 13.445312 23.542969 61.941406 10.671875 87.554687 1.816406 3.179688 16.941407 7.398438 31.921876 12.492188 43.804688l13.789062-5.90625c-4.949218-11.550781-9.023437-26.34375-12.035156-43.1875 9.957031-3.945312 20.203125-8.503906 30.566406-13.613281 10.445313 5.210937 20.773438 9.863281 30.804688 13.882812-3.125 17.363281-7.375 32.527344-12.566406 44.214844l13.710937 6.085937c5.359375-12.066406 9.78125-27.457031 13.085937-44.960937 25.351563 8.871094 73.714844 21.925781 87.246094-1.511719 13.46875-23.328125-21.609375-58.472656-42.0625-76.109375 13.222656-11.285156 24.160156-22.492187 31.90625-32.898437l-12.039062-8.957032c-7.523438 10.117188-18.378906 21.097657-31.609375 32.191407-8.527344-6.714844-17.765625-13.371094-27.546875-19.847657-.703125-11.476562-1.824219-22.582031-3.324219-33.140624 16.394531-5.832032 31.484375-9.65625 44.109375-11.027344l-1.621094-14.914063c-13.011718 1.414063-28.371094 5.207031-44.960937 10.949219-5.011719-26.625-17.890625-75.125-44.996094-75.125-27 0-39.886719 48.136719-44.933594 74.808594-16.445312-5.765625-31.675781-9.59375-44.605469-11.058594l-1.691406 14.90625c12.554688 1.425781 27.539063 5.289062 43.808594 11.148438-1.519531 10.601562-2.648438 21.765624-3.359375 33.300781-9.761719 6.402343-18.988281 12.984375-27.511719 19.628906zm26.75-1.019531c-.164062 7.304687-.191406 13.441406-.011718 21.515625-5.109376-3.574219-10.03125-7.183594-14.726563-10.808594 4.707031-3.59375 9.625-7.171875 14.738281-10.707031zm87.746094 31.886718c-11.714844 7.414063-23.902344 14.378907-36.300781 20.753907-12.171875-6.332031-24.296875-13.316407-36.109375-20.863281-.644532-14.328126-.605469-28.476563-.003906-41.925782 11.355468-7.175781 23.570312-14.195312 36.3125-20.738281 12.480468 6.484375 24.601562 13.503906 36.117187 20.847656.613281 13.847657.617187 27.949219-.015625 41.925781zm-111.460938 49.671876c-27.972656 6.351562-41.300781 2.644531-44.21875-2.460938-2.914062-5.101562.667969-18.464844 20.355469-39.328125 6.039063-6.402344 13.035157-12.929687 20.808594-19.457031 8.53125 6.714844 17.773437 13.386718 27.546875 19.875.714844 11.46875 1.84375 22.589844 3.347656 33.148437-9.753906 3.464844-19.105468 6.238281-27.839844 8.222657zm42.195313-13.710938c-.757813-5.71875-1.402344-11.617188-1.925781-17.644531 6.898437 4.191406 12.121094 7.167969 18.261718 10.542969-5.515624 2.542968-10.96875 4.914062-16.335937 7.101562zm49.554687-7.023438c6.351563-3.453124 11.628907-6.4375 18.503907-10.574218-.53125 6.109375-1.1875 12.070312-1.957031 17.855468-5.4375-2.242187-10.960938-4.671874-16.546876-7.28125zm82.492188-20.589843c19.589844 20.957031 23.105469 34.339843 20.167969 39.429687-2.941407 5.089844-16.289063 8.734375-44.230469 2.25-8.644531-2.007812-17.890625-4.792968-27.539062-8.257812 1.523437-10.597656 2.660156-21.777344 3.378906-33.320313 9.757812-6.410156 18.984375-13.007812 27.503906-19.652343 7.75 6.5625 14.710938 13.125 20.71875 19.550781zm-32.699219-29.210938c-4.699219 3.589844-9.625 7.164063-14.730469 10.703125.183594-8.136718.152344-14.277344-.003906-21.515625 5.113282 3.574219 10.03125 7.183594 14.734375 10.8125zm-31.277343-39.480469c-6.492188-3.9375-12.316407-7.28125-18.261719-10.539062 5.519531-2.542969 10.972656-4.917969 16.335937-7.101562.757813 5.726562 1.402344 11.613281 1.925782 17.640624zm-59.070313-61.078124c8.355469-27.441407 18.1875-37.175782 24.0625-37.175782 5.878906 0 15.707031 9.734375 24.0625 37.175782 2.609375 8.566406 4.835937 18.0625 6.667969 28.25-9.957032 3.945312-20.222656 8.503906-30.589844 13.601562-10.445312-5.195312-20.789062-9.847656-30.820312-13.863281 1.820312-10.089844 4.03125-19.496094 6.617187-27.988281zm-8.984375 43.183593c5.425781 2.238281 10.953125 4.667969 16.535156 7.277344-5.964844 3.238281-11.90625 6.605469-18.488281 10.5625.527344-6.097656 1.183594-12.050781 1.953125-17.839844zm0 0" data-original="#000000" class="active-path" data-old_color="#51aecf" fill="#51aecf"/><path d="m79.125 286.988281 10.609375 10.609375 27.835937-27.839844 94.265626 94.265626-83.085938 83.085937c-26.046875 26.046875-68.210938 26.050781-94.261719 0-25.992187-25.988281-25.992187-68.277344 0-94.265625l41.101563-41.101562-10.609375-10.609376-41.101563 41.105469c-31.839844 31.835938-31.839844 83.640625 0 115.476563 31.839844 31.839844 83.640625 31.839844 115.480469 0l93.691406-93.691406-115.480469-115.480469zm0 0" data-original="#000000" class="active-path" data-old_color="#51aecf" fill="#51aecf"/><path d="m488.121094 342.234375-93.691406-93.691406-115.480469 115.480469 30.410156 30.410156 10.609375-10.609375-19.804688-19.800781 94.265626-94.265626 83.082031 83.085938c25.988281 25.988281 25.988281 68.277344 0 94.265625s-68.273438 25.988281-94.261719 0l-49.140625-49.140625-10.605469 10.609375 49.136719 49.136719c31.839844 31.839844 83.640625 31.839844 115.480469 0 31.839844-31.835938 31.839844-83.640625 0-115.480469zm0 0" data-original="#000000" class="active-path" data-old_color="#51aecf" fill="#51aecf"/><path d="m81.617188 456.628906c-15.132813 0-29.359376-5.894531-40.058594-16.59375l10.609375-10.609375c7.863281 7.867188 18.324219 12.199219 29.449219 12.199219s21.585937-4.332031 29.449218-12.199219l35.347656-35.347656 10.609376 10.609375-35.34375 35.347656c-10.703126 10.699219-24.929688 16.59375-40.0625 16.59375zm82.480468-59.015625-10.609375-10.605469 10.609375-10.609374 10.609375 10.609374zm17.679688-17.679687-10.605469-10.605469 10.605469-10.609375 10.609375 10.609375zm0 0" data-original="#000000" class="active-path" data-old_color="#51aecf" fill="#51aecf"/><path d="m430.382812 456.628906c-15.132812 0-29.359374-5.894531-40.0625-16.59375l10.609376-10.609375c7.867187 7.867188 18.324218 12.199219 29.449218 12.199219 11.128906 0 21.585938-4.332031 29.453125-12.199219 5.476563-5.476562 9.304688-12.34375 11.066407-19.859375l14.605468 3.429688c-2.402344 10.238281-7.609375 19.585937-15.0625 27.039062-10.699218 10.699219-24.925781 16.59375-40.058594 16.59375zm56.605469-55.042968-14.996093-.40625c.011718-.402344.015624-.804688.015624-1.203126 0-3.859374-.527343-7.691406-1.570312-11.390624l14.4375-4.074219c1.417969 5.027343 2.136719 10.230469 2.136719 15.464843 0 .535157-.007813 1.070313-.023438 1.609376zm-19.664062-20.859376c-1.953125-3.75-4.472657-7.183593-7.492188-10.203124l10.609375-10.605469c4.105469 4.101562 7.535156 8.777343 10.191406 13.890625zm0 0" data-original="#000000" class="active-path" data-old_color="#51aecf" fill="#51aecf"/></g> </svg>
