<?xml version="1.0"?>
<svg xmlns="http://www.w3.org/2000/svg" height="512px" viewBox="-31 0 463 464" width="512px" class=""><g><path d="m368.5 392c0 22.089844-17.910156 40-40 40s-40-17.910156-40-40 17.910156-40 40-40 40 17.910156 40 40zm0 0" data-original="#000000" class="active-path" data-old_color="#51aecf" fill="#51aecf"/><path d="m288.5 32h16v16h-16zm0 0" data-original="#000000" class="active-path" data-old_color="#51aecf" fill="#51aecf"/><path d="m.5 448c0 8.824219 7.175781 16 16 16s16-7.175781 16-16v-344h-32zm0 0" data-original="#000000" class="active-path" data-old_color="#51aecf" fill="#51aecf"/><path d="m368.5 192h-288v80h288zm-184 48h-16v-16h16zm48 0h-16v-16h16zm48 0h-16v-16h16zm0 0" data-original="#000000" class="active-path" data-old_color="#51aecf" fill="#51aecf"/><path d="m48.5 0v448c0 5.824219-1.558594 11.289062-4.296875 16h340.296875c8.824219 0 16-7.175781 16-16v-448zm224 16h48v48h-48zm-104 0h88v16h-88zm0 32h88v16h-88zm-104-32h88v16h-88zm0 32h88v16h-88zm0 64h16v16h-16zm0 224h16v16h-16zm88 112h-88v-16h88zm0-32h-88v-16h88zm0-32h-88v-16h88zm0-32h-56v-16h56zm0-32h-88v-16h88zm72 128h-56v-16h56zm32 0h-16v-16h16zm0-32h-88v-16h88zm0-32h-88v-16h88zm0-32h-88v-16h88zm0-32h-88v-16h88zm72 128c-30.878906 0-56-25.128906-56-56s25.121094-56 56-56 56 25.128906 56 56-25.121094 56-56 56zm56-160h-320v-112h320zm0-128h-320v-16h320zm-288-32v-16h256v16zm288 0h-16v-16h16zm0-32h-320v-16h320zm0-32h-48v-48h48zm0 0" data-original="#000000" class="active-path" data-old_color="#51aecf" fill="#51aecf"/><path d="m352.5 32h16v16h-16zm0 0" data-original="#000000" class="active-path" data-old_color="#51aecf" fill="#51aecf"/></g> </svg>
