<?xml version="1.0"?>
<svg xmlns="http://www.w3.org/2000/svg" height="512px" viewBox="0 -32 464.008 464" width="512px" class=""><g><path d="m308.601562 256.003906 25.261719 80h15.449219l-36.417969-123.816406c-.589843-2.015625-.894531-4.101562-.894531-6.199219 0-12.128906 9.863281-21.984375 21.984375-21.984375h48.183594l40 152h23.585937l-28.976562-115.910156-8.167969-8.167969c-5.546875-5.539062-8.609375-12.929687-8.609375-20.785156 0-6.3125 2.089844-12.570313 5.871094-17.640625l15.449218-20.574219c1.75-2.355469 2.679688-5.128906 2.679688-8.058593v-6.230469c0-1.097657-.136719-2.175781-.398438-3.242188l-7.847656-31.390625h-8.699218l-6.246094 49.984375c-.992188 7.992188-7.816406 14.015625-15.871094 14.015625h-129.875c-8.046875 0-14.878906-6.023437-15.871094-14.015625l-2.253906-17.984375h-204.9375v48h160v48c0 13.230469 10.769531 24 24 24zm-100.601562-24v-48h40v1.375c0 12.457032-4.847656 24.167969-13.65625 32.96875l11.3125 11.3125c11.832031-11.824218 18.34375-27.542968 18.34375-44.28125v-1.375h21.863281l17.6875 56h-87.550781c-4.40625 0-8-3.582031-8-8zm0 0" data-original="#000000" class="active-path" data-old_color="#51aecf" fill="#51aecf"/><path d="m208 288.003906h48v112h-48zm0 0" data-original="#000000" class="active-path" data-old_color="#51aecf" fill="#51aecf"/><path d="m80 384.003906h112v-80h-112zm80-48h16v16h-16zm-32 0h16v16h-16zm-32 0h16v16h-16zm0 0" data-original="#000000" class="active-path" data-old_color="#51aecf" fill="#51aecf"/><path d="m40.527344 307.164062-29.785156 17.863282c-6.621094 3.976562-10.742188 11.25-10.742188 18.976562 0 7.726563 4.121094 15 10.742188 18.976563l29.777343 17.863281c3.441407 2.0625 7.375 3.160156 11.390625 3.160156h12.089844v-80h-12.089844c-4.015625 0-7.949218 1.097656-11.382812 3.160156zm0 0" data-original="#000000" class="active-path" data-old_color="#51aecf" fill="#51aecf"/><path d="m296 48.003906h16v40h-16zm0 0" data-original="#000000" class="active-path" data-old_color="#51aecf" fill="#51aecf"/><path d="m328 48.003906h16v40h-16zm0 0" data-original="#000000" class="active-path" data-old_color="#51aecf" fill="#51aecf"/><path d="m360 48.003906h16v40h-16zm0 0" data-original="#000000" class="active-path" data-old_color="#51aecf" fill="#51aecf"/><path d="m280 88.003906v-40h-92.6875l40 40zm0 0" data-original="#000000" class="active-path" data-old_color="#51aecf" fill="#51aecf"/><path d="m392 .00390625h-52.6875l-8 7.99999975h36.6875v16h-68.6875l-8 8h100.6875zm0 0" data-original="#000000" class="active-path" data-old_color="#51aecf" fill="#51aecf"/><path d="m448 104.003906v-40h-25.753906l10 40zm0 0" data-original="#000000" class="active-path" data-old_color="#51aecf" fill="#51aecf"/><path d="m392 88.003906h19.753906l-10-40h-9.753906zm0 0" data-original="#000000" class="active-path" data-old_color="#51aecf" fill="#51aecf"/><path d="m194.246094 120.003906h40.691406l-2-16h-34.691406zm0 0" data-original="#000000" class="active-path" data-old_color="#51aecf" fill="#51aecf"/><path d="m255.0625 152.003906h129.875l6-48h-141.875zm104.9375-32h16v16h-16zm-32 0h16v16h-16zm-32 0h16v16h-16zm-32 0h16v16h-16zm0 0" data-original="#000000" class="active-path" data-old_color="#51aecf" fill="#51aecf"/><path d="m320 352.003906h144.007812v32h-144.007812zm0 0" data-original="#000000" class="active-path" data-old_color="#51aecf" fill="#51aecf"/><path d="m0 64.003906h16v48h-16zm0 0" data-original="#000000" class="active-path" data-old_color="#51aecf" fill="#51aecf"/><path d="m65.753906 104.003906h-33.753906v16h37.753906zm0 0" data-original="#000000" class="active-path" data-old_color="#51aecf" fill="#51aecf"/><path d="m333.984375 200.003906c-3.304687 0-5.984375 2.6875-5.984375 5.984375 0 .566407.078125 1.144531.246094 1.695313l37.738281 128.320312h39.632813l-35.792969-136zm0 0" data-original="#000000" class="active-path" data-old_color="#51aecf" fill="#51aecf"/><path d="m204.6875 88.003906-40-40h-25.375l40 40zm0 0" data-original="#000000" class="active-path" data-old_color="#51aecf" fill="#51aecf"/><path d="m86.246094 120.003906h91.507812l4-16h-99.507812zm0 0" data-original="#000000" class="active-path" data-old_color="#51aecf" fill="#51aecf"/><path d="m68.6875 48.003906h-36.6875v40h76.6875zm0 0" data-original="#000000" class="active-path" data-old_color="#51aecf" fill="#51aecf"/><path d="m131.3125 88.003906h25.375l-40-40h-25.375zm0 0" data-original="#000000" class="active-path" data-old_color="#51aecf" fill="#51aecf"/><path d="m64 16.003906h48v16h-48zm0 0" data-original="#000000" class="active-path" data-old_color="#51aecf" fill="#51aecf"/></g> </svg>
