<?xml version="1.0"?>
<svg xmlns="http://www.w3.org/2000/svg" height="512px" viewBox="0 0 512 512.23762" width="512px" class=""><g><path d="m273.777344 256.117188c0 9.753906-7.90625 17.65625-17.65625 17.65625s-17.65625-7.902344-17.65625-17.65625c0-9.75 7.90625-17.652344 17.65625-17.652344s17.65625 7.902344 17.65625 17.652344zm0 0" data-original="#000000" class="active-path" data-old_color="#51aecf" fill="#51aecf"/><path d="m230.609375 412.808594 3.882813 13.417968c1.054687 3.808594 4.523437 6.445313 8.476562 6.445313h26.304688c3.953124 0 7.417968-2.636719 8.472656-6.445313l3.886718-13.417968c-16.882812 2.941406-34.144531 2.941406-51.023437 0zm0 0" data-original="#000000" class="active-path" data-old_color="#51aecf" fill="#51aecf"/><path d="m140.566406 121.941406-18.625 18.625c-2.757812 2.832032-3.332031 7.136719-1.414062 10.59375l6.796875 12.269532c10.0625-13.859376 22.25-26.042969 36.105469-36.105469l-12.269532-6.796875c-3.457031-1.917969-7.761718-1.34375-10.59375 1.414062zm0 0" data-original="#000000" class="active-path" data-old_color="#51aecf" fill="#51aecf"/><path d="m256.121094 362.050781c58.503906 0 105.929687-47.429687 105.929687-105.933593 0-58.503907-47.425781-105.929688-105.929687-105.929688s-105.933594 47.425781-105.933594 105.929688c.050781 58.484374 47.449219 105.882812 105.933594 105.933593zm0-141.242187c19.5 0 35.308594 15.808594 35.308594 35.308594 0 19.503906-15.808594 35.3125-35.308594 35.3125-19.503906 0-35.3125-15.808594-35.3125-35.3125 0-9.363282 3.71875-18.347657 10.339844-24.96875 6.625-6.625 15.605468-10.34375 24.972656-10.339844zm0 0" data-original="#000000" class="active-path" data-old_color="#51aecf" fill="#51aecf"/><path d="m371.671875 390.296875 18.628906-18.625c2.757813-2.832031 3.332031-7.136719 1.410157-10.59375l-6.796876-12.269531c-10.0625 13.859375-22.246093 26.042968-36.105468 36.105468l12.273437 6.796876c3.453125 1.917968 7.757813 1.34375 10.589844-1.414063zm0 0" data-original="#000000" class="active-path" data-old_color="#51aecf" fill="#51aecf"/><path d="m426.316406 277.746094c3.769532-1.09375 6.359375-4.550782 6.355469-8.472656v-26.308594c.003906-3.921875-2.585937-7.378906-6.355469-8.472656l-13.507812-3.886719c2.945312 16.882812 2.945312 34.144531 0 51.023437zm0 0" data-original="#000000" class="active-path" data-old_color="#51aecf" fill="#51aecf"/><path d="m281.632812 99.429688-3.886718-13.417969c-1.054688-3.808594-4.519532-6.445313-8.472656-6.445313h-26.304688c-3.953125 0-7.421875 2.636719-8.476562 6.445313l-3.882813 13.417969c16.878906-2.941407 34.140625-2.941407 51.023437 0zm0 0" data-original="#000000" class="active-path" data-old_color="#51aecf" fill="#51aecf"/><path d="m127.324219 348.808594-6.796875 12.359375c-1.914063 3.425781-1.339844 7.703125 1.414062 10.503906l18.625 18.625c2.832032 2.757813 7.136719 3.332031 10.59375 1.414063l12.269532-6.796876c-13.855469-10.0625-26.042969-22.246093-36.105469-36.105468zm0 0" data-original="#000000" class="active-path" data-old_color="#51aecf" fill="#51aecf"/><path d="m85.925781 234.492188c-3.769531 1.09375-6.359375 4.550781-6.355469 8.472656v26.308594c-.003906 3.949218 2.632813 7.417968 6.441407 8.472656l13.417969 3.882812c-2.941407-16.878906-2.941407-34.140625 0-51.023437zm0 0" data-original="#000000" class="active-path" data-old_color="#51aecf" fill="#51aecf"/><path d="m361.082031 120.527344-12.273437 6.796875c13.859375 10.0625 26.042968 22.246093 36.105468 36.105469l6.796876-12.359376c1.914062-3.425781 1.339843-7.707031-1.410157-10.503906l-18.628906-18.625c-2.832031-2.757812-7.136719-3.332031-10.589844-1.414062zm0 0" data-original="#000000" class="active-path" data-old_color="#51aecf" fill="#51aecf"/><path d="m129.089844 317.382812c.355468.792969.707031 1.5 1.0625 2.292969 1.144531 2.296875 2.382812 4.59375 3.707031 6.886719 12.476563 21.480469 30.335937 39.339844 51.816406 51.820312 2.207031 1.234376 4.503907 2.46875 6.886719 3.707032.792969.351562 1.589844.792968 2.472656 1.144531 8.003906 3.898437 16.371094 7.003906 24.980469 9.269531 23.632813 6.472656 48.574219 6.472656 72.210937 0 8.609376-2.265625 16.976563-5.371094 24.980469-9.269531.882813-.351563 1.675781-.792969 2.472657-1.144531 2.382812-1.238282 4.679687-2.472656 6.886718-3.707032 21.480469-12.480468 39.339844-30.339843 51.816406-51.820312 1.324219-2.292969 2.558594-4.589844 3.707032-6.886719.351562-.792969.707031-1.5 1.058594-2.292969 9.210937-19.121093 14.0625-40.042968 14.214843-61.265624-.050781-12.101563-1.652343-24.144532-4.769531-35.839844-2.285156-8.769532-5.453125-17.285156-9.445312-25.421875-.351563-.792969-.707032-1.5-1.058594-2.207031-1.148438-2.382813-2.382813-4.679688-3.707032-6.972657-12.476562-21.480469-30.335937-39.339843-51.816406-51.820312-2.207031-1.234375-4.503906-2.46875-6.886718-3.707031-.796876-.351563-1.589844-.792969-2.472657-1.148438-8.003906-3.894531-16.371093-7-24.980469-9.265625-23.636718-6.476563-48.578124-6.476563-72.210937 0-8.609375 2.265625-16.976563 5.371094-24.980469 9.265625-.882812.355469-1.679687.796875-2.472656 1.148438-2.382812 1.238281-4.679688 2.472656-6.886719 3.707031-21.480469 12.480469-39.339843 30.339843-51.816406 51.820312-1.324219 2.292969-2.5625 4.589844-3.707031 6.972657-.355469.707031-.707032 1.414062-1.0625 2.207031-3.992188 8.136719-7.15625 16.652343-9.445313 25.421875-3.113281 11.695312-4.714843 23.738281-4.765625 35.839844.148438 21.222656 5.003906 42.144531 14.210938 61.265624zm127.03125-184.851562c68.253906 0 123.585937 55.332031 123.585937 123.585938 0 68.257812-55.332031 123.585937-123.585937 123.585937s-123.585938-55.328125-123.585938-123.585937c.074219-68.222657 55.363282-123.507813 123.585938-123.585938zm0 0" data-original="#000000" class="active-path" data-old_color="#51aecf" fill="#51aecf"/><path d="m18.082031 51.558594c-.148437.496094-.25 1.007812-.304687 1.527344v27.996093c-.019532 7.027344 2.773437 13.769531 7.757812 18.726563l24.964844 24.964844c4.953125 4.984374 11.695312 7.777343 18.722656 7.757812h19.171875c4.878907 0 8.828125-3.949219 8.828125-8.828125 0-4.875-3.949218-8.824219-8.828125-8.824219h-19.171875c-2.339844-.011718-4.582031-.9375-6.238281-2.589844l-24.96875-24.964843c-1.65625-1.652344-2.589844-3.902344-2.585937-6.242188v-27.996093c-.054688-.519532-.15625-1.03125-.308594-1.527344 12.273437-4.167969 19.722656-16.605469 17.613281-29.394532-2.113281-12.785156-13.171875-22.164062-26.128906-22.164062-12.960938 0-24.015625 9.378906-26.128907 22.164062-2.113281 12.789063 5.335938 25.226563 17.609376 29.394532zm0 0" data-original="#000000" class="active-path" data-old_color="#51aecf" fill="#51aecf"/><path d="m17.777344 211.980469c6.460937-.015625 12.390625-3.574219 15.445312-9.269531.714844.246093 1.457032.394531 2.207032.441406h17.65625c9.746093-.011719 17.644531-7.90625 17.65625-17.652344v-17.65625h17.652343c4.878907 0 8.828125-3.953125 8.828125-8.828125s-3.949218-8.828125-8.828125-8.828125h-17.652343c-9.746094.011719-17.644532 7.910156-17.65625 17.65625v17.65625h-17.65625c-.75.046875-1.492188.195312-2.207032.441406-4.113281-7.566406-13.09375-11.050781-21.234375-8.238281s-13.054687 11.097656-11.621093 19.589844c1.433593 8.492187 8.796874 14.703125 17.410156 14.6875zm0 0" data-original="#000000" class="active-path" data-old_color="#51aecf" fill="#51aecf"/><path d="m123.707031 97.222656c4.875 0 8.828125-3.953125 8.828125-8.828125v-13.242187c0-2.433594 1.976563-4.410156 4.414063-4.414063 12.183593-.011719 22.054687-9.882812 22.066406-22.066406v-13.242187c-.046875-.753907-.195313-1.496094-.441406-2.207032 7.117187-3.839844 10.714843-12.023437 8.738281-19.863281-1.980469-7.839844-9.035156-13.3320312-17.121094-13.3320312-8.082031 0-15.136718 5.4921872-17.117187 13.3320312-1.976563 7.839844 1.621093 16.023437 8.738281 19.863281-.25.710938-.398438 1.453125-.449219 2.207032v13.242187c-.003906 2.433594-1.980469 4.410156-4.414062 4.414063-12.183594.011718-22.058594 9.882812-22.070313 22.066406v13.242187c0 4.875 3.953125 8.828125 8.828125 8.828125zm0 0" data-original="#000000" class="active-path" data-old_color="#51aecf" fill="#51aecf"/><path d="m494.464844 176.671875c-6.460938.015625-12.394532 3.574219-15.449219 9.269531-.710937-.246094-1.453125-.394531-2.207031-.441406h-17.652344v-17.65625c-.011719-9.746094-7.910156-17.644531-17.65625-17.65625h-17.65625c-4.875 0-8.828125 3.953125-8.828125 8.828125s3.953125 8.828125 8.828125 8.828125h17.65625v17.65625c.011719 9.746094 7.910156 17.640625 17.65625 17.652344h17.652344c.753906-.046875 1.496094-.195313 2.207031-.441406 4.117187 7.566406 13.097656 11.050781 21.238281 8.238281 8.136719-2.816407 13.050782-11.097657 11.617188-19.589844s-8.792969-14.703125-17.40625-14.6875zm0 0" data-original="#000000" class="active-path" data-old_color="#51aecf" fill="#51aecf"/><path d="m485.636719.117188c-12.945313-.0312505-24.011719 9.324218-26.125 22.097656-2.117188 12.777344 5.339843 25.199218 17.605469 29.34375-.148438.496094-.25 1.007812-.308594 1.527344v27.996093c.003906 2.339844-.925782 4.589844-2.585938 6.242188l-24.964844 24.964843c-1.660156 1.652344-3.902343 2.578126-6.242187 2.589844h-19.171875c-4.875 0-8.828125 3.949219-8.828125 8.824219 0 4.878906 3.953125 8.828125 8.828125 8.828125h19.171875c7.027344.019531 13.769531-2.773438 18.726563-7.757812l24.964843-24.964844c4.984375-4.957032 7.777344-11.699219 7.757813-18.726563v-27.996093c-.054688-.519532-.15625-1.03125-.308594-1.527344 12.269531-4.144532 19.722656-16.566406 17.609375-29.34375-2.117187-12.773438-13.179687-22.1289065-26.128906-22.097656zm0 0" data-original="#000000" class="active-path" data-old_color="#51aecf" fill="#51aecf"/><path d="m353.667969 33.222656c-.246094.710938-.394531 1.453125-.445313 2.207032v13.242187c.015625 12.183594 9.886719 22.054687 22.070313 22.066406 2.4375.003907 4.410156 1.980469 4.414062 4.414063v13.242187c0 4.875 3.953125 8.828125 8.828125 8.828125s8.828125-3.953125 8.828125-8.828125v-13.242187c-.015625-12.183594-9.886719-22.054688-22.070312-22.066406-2.4375-.003907-4.410157-1.980469-4.414063-4.414063v-13.242187c-.050781-.753907-.199218-1.496094-.441406-2.207032 7.117188-3.839844 10.714844-12.023437 8.734375-19.863281-1.976563-7.839844-9.03125-13.3320312-17.117187-13.3320312-8.085938 0-15.136719 5.4921872-17.117188 13.3320312s1.621094 16.023437 8.734375 19.863281zm0 0" data-original="#000000" class="active-path" data-old_color="#51aecf" fill="#51aecf"/><path d="m136.949219 459.152344c2.433593.003906 4.410156 1.976562 4.414062 4.414062v13.242188c.046875.75.195313 1.492187.441407 2.207031-7.117188 3.839844-10.71875 12.019531-8.738282 19.859375 1.980469 7.839844 9.03125 13.332031 17.117188 13.332031 8.085937 0 15.140625-5.492187 17.121094-13.332031 1.976562-7.839844-1.621094-16.019531-8.738282-19.859375.246094-.710937.398438-1.453125.449219-2.207031v-13.242188c-.011719-12.183594-9.882813-22.054687-22.066406-22.066406-2.4375-.003906-4.414063-1.980469-4.414063-4.414062v-13.242188c0-4.875-3.953125-8.828125-8.828125-8.828125s-8.828125 3.953125-8.828125 8.828125v13.242188c.011719 12.179687 9.886719 22.054687 22.070313 22.066406zm0 0" data-original="#000000" class="active-path" data-old_color="#51aecf" fill="#51aecf"/><path d="m53.085938 485.636719c-.023438-11.308594-7.25-21.34375-17.964844-24.957031.152344-.5.253906-1.007813.308594-1.527344v-27.996094c-.003907-2.34375.929687-4.589844 2.585937-6.246094l24.96875-24.964844c1.65625-1.648437 3.898437-2.578124 6.238281-2.585937h19.171875c4.878907 0 8.828125-3.953125 8.828125-8.828125s-3.949218-8.828125-8.828125-8.828125h-19.171875c-7.027344-.015625-13.769531 2.777344-18.722656 7.761719l-24.964844 24.964844c-4.984375 4.957031-7.777344 11.699218-7.757812 18.726562v27.996094c.054687.519531.15625 1.027344.304687 1.527344-12.75 4.371093-20.171875 17.636718-17.222656 30.792968 2.953125 13.152344 15.332031 21.980469 28.730469 20.484375 13.398437-1.5 23.519531-12.839843 23.496094-26.320312zm0 0" data-original="#000000" class="active-path" data-old_color="#51aecf" fill="#51aecf"/><path d="m17.777344 335.566406c6.460937-.015625 12.390625-3.574218 15.445312-9.269531.714844.246094 1.457032.394531 2.207032.441406h17.65625v17.65625c.011718 9.746094 7.910156 17.644531 17.65625 17.65625h17.652343c4.878907 0 8.828125-3.953125 8.828125-8.828125s-3.949218-8.828125-8.828125-8.828125h-17.652343v-17.65625c-.011719-9.746093-7.910157-17.644531-17.65625-17.652343h-17.65625c-.75.046874-1.492188.195312-2.207032.441406-4.113281-7.566406-13.09375-11.050782-21.234375-8.238282s-13.054687 11.097657-11.621093 19.589844c1.433593 8.492188 8.796874 14.703125 17.410156 14.6875zm0 0" data-original="#000000" class="active-path" data-old_color="#51aecf" fill="#51aecf"/><path d="m494.15625 460.679688c.152344-.5.253906-1.007813.308594-1.527344v-27.996094c.019531-7.027344-2.773438-13.769531-7.757813-18.726562l-24.964843-24.964844c-4.957032-4.984375-11.699219-7.777344-18.726563-7.761719h-19.171875c-4.875 0-8.828125 3.953125-8.828125 8.828125s3.953125 8.828125 8.828125 8.828125h19.171875c2.339844.007813 4.582031.9375 6.242187 2.585937l24.964844 24.964844c1.660156 1.65625 2.589844 3.902344 2.585938 6.246094v27.996094c.058594.519531.160156 1.027344.308594 1.527344-12.269532 4.167968-19.722657 16.605468-17.609376 29.390624 2.113282 12.789063 13.167969 22.167969 26.128907 22.167969 12.960937 0 24.015625-9.378906 26.128906-22.167969 2.113281-12.785156-5.339844-25.222656-17.609375-29.390624zm0 0" data-original="#000000" class="active-path" data-old_color="#51aecf" fill="#51aecf"/><path d="m494.464844 300.257812c-6.460938.015626-12.394532 3.574219-15.449219 9.269532-.710937-.246094-1.453125-.394532-2.207031-.441406h-17.652344c-9.746094.007812-17.644531 7.90625-17.65625 17.652343v17.65625h-17.65625c-4.875 0-8.828125 3.953125-8.828125 8.828125s3.953125 8.828125 8.828125 8.828125h17.65625c9.746094-.011719 17.644531-7.910156 17.65625-17.65625v-17.65625h17.652344c.753906-.046875 1.496094-.195312 2.207031-.441406 4.117187 7.566406 13.097656 11.050781 21.238281 8.238281 8.136719-2.8125 13.050782-11.097656 11.617188-19.589844-1.433594-8.492187-8.792969-14.703124-17.40625-14.6875zm0 0" data-original="#000000" class="active-path" data-old_color="#51aecf" fill="#51aecf"/><path d="m362.050781 512.117188c8.078125.03125 15.136719-5.445313 17.121094-13.273438 1.984375-7.832031-1.617187-16.007812-8.734375-19.828125.242188-.714844.390625-1.457031.441406-2.207031v-13.242188c.003906-2.4375 1.976563-4.410156 4.414063-4.414062 12.183593-.011719 22.054687-9.886719 22.070312-22.066406v-13.242188c0-4.875-3.953125-8.828125-8.828125-8.828125s-8.828125 3.953125-8.828125 8.828125v13.242188c-.003906 2.433593-1.976562 4.410156-4.414062 4.414062-12.183594.011719-22.054688 9.882812-22.070313 22.066406v13.242188c.050782.75.199219 1.492187.441406 2.207031-7.117187 3.820313-10.71875 11.996094-8.734374 19.828125 1.984374 7.828125 9.042968 13.304688 17.121093 13.273438zm0 0" data-original="#000000" class="active-path" data-old_color="#51aecf" fill="#51aecf"/></g> </svg>
