<?xml version="1.0"?>
<svg xmlns="http://www.w3.org/2000/svg" height="512px" viewBox="0 0 511.53554 511.53554" width="512px" class=""><g><path d="m365.480469 63.769531c16.703125-.058593 32.101562 9.027344 40.121093 23.679688 8.019532 14.652343 7.378907 32.519531-1.671874 46.558593 26.261718 31.859376 41.496093 71.371094 43.421874 112.617188h64.179688c-4.941406-134.105469-112.515625-241.679688-246.621094-246.625v64.015625c22.910156 1.027344 45.441406 6.207031 66.496094 15.296875 8.59375-9.84375 21.011719-15.503906 34.074219-15.542969zm0 0" data-original="#000000" class="active-path" data-old_color="#51aecf" fill="#51aecf"/><path d="m392.910156 109.480469c0 15.148437-12.28125 27.429687-27.429687 27.429687-15.148438 0-27.425781-12.28125-27.425781-27.429687 0-15.148438 12.277343-27.425781 27.425781-27.425781 15.148437 0 27.429687 12.277343 27.429687 27.425781zm0 0" data-original="#000000" class="active-path" data-old_color="#51aecf" fill="#51aecf"/><path d="m264.910156 164.804688v81.820312h81.820313c-4.40625-43.230469-38.589844-77.414062-81.820313-81.820312zm0 0" data-original="#000000" class="active-path" data-old_color="#51aecf" fill="#51aecf"/><path d="m365.019531 246.625h64.042969c-1.875-36.28125-15.136719-71.046875-37.894531-99.363281-16.113281 11.289062-37.664063 10.90625-53.367188-.945313-15.703125-11.851562-21.976562-32.472656-15.539062-51.0625-18.226563-7.59375-37.628907-11.976562-57.351563-12.953125v64.214844c53.304688 4.523437 95.585938 46.804687 100.109375 100.109375zm0 0" data-original="#000000" class="active-path" data-old_color="#51aecf" fill="#51aecf"/><path d="m347.195312 328.910156c0 10.097656-8.1875 18.285156-18.285156 18.285156s-18.285156-8.1875-18.285156-18.285156 8.1875-18.285156 18.285156-18.285156 18.285156 8.1875 18.285156 18.285156zm0 0" data-original="#000000" class="active-path" data-old_color="#51aecf" fill="#51aecf"/><path d="m246.625 511.535156v-64.183594c-41.238281-1.953124-80.738281-17.1875-112.609375-43.425781-20.050781 12.953125-46.699219 8.230469-61.074219-10.824219-14.375-19.058593-11.59375-45.980468 6.371094-61.695312-9.085938-21.054688-14.269531-43.585938-15.296875-66.496094h-64.015625c4.941406 134.105469 112.519531 241.683594 246.625 246.625zm0 0" data-original="#000000" class="active-path" data-old_color="#51aecf" fill="#51aecf"/><path d="m246.625 264.910156h-81.820312c4.40625 43.230469 38.589843 77.414063 81.820312 81.824219zm0 0" data-original="#000000" class="active-path" data-old_color="#51aecf" fill="#51aecf"/><path d="m246.625 429.0625v-64.042969c-53.304688-4.523437-95.585938-46.804687-100.109375-100.109375h-64.214844c.980469 19.722656 5.359375 39.125 12.949219 57.351563 4.578125-1.589844 9.386719-2.433594 14.230469-2.492188 16.933593-.015625 32.488281 9.335938 40.410156 24.304688 7.921875 14.964843 6.914063 33.085937-2.621094 47.078125 28.324219 22.746094 63.082031 36.007812 99.355469 37.910156zm0 0" data-original="#000000" class="active-path" data-old_color="#51aecf" fill="#51aecf"/><path d="m246.625 64.214844v-64.214844c-61.523438 2.152344-120.195312 26.488281-165.175781 68.523438l45.351562 45.351562c32.886719-30.085938 75.296875-47.664062 119.824219-49.660156zm0 0" data-original="#000000" class="active-path" data-old_color="#51aecf" fill="#51aecf"/><path d="m136.910156 365.480469c0 15.148437-12.28125 27.429687-27.429687 27.429687-15.148438 0-27.425781-12.28125-27.425781-27.429687 0-15.148438 12.277343-27.425781 27.425781-27.425781 15.148437 0 27.429687 12.277343 27.429687 27.425781zm0 0" data-original="#000000" class="active-path" data-old_color="#51aecf" fill="#51aecf"/><path d="m82.5 246.625h64c1.824219-22.726562 10.75-44.304688 25.519531-61.671875l-45.21875-45.21875c-26.667969 29.445313-42.320312 67.214844-44.300781 106.890625zm0 0" data-original="#000000" class="active-path" data-old_color="#51aecf" fill="#51aecf"/><path d="m292.339844 328.910156c.019531-20.1875 16.382812-36.550781 36.570312-36.570312 3.324219.046875 6.625.554687 9.8125 1.503906 4.246094-9.128906 6.914063-18.910156 7.894532-28.933594h-81.707032v81.707032c10.023438-.980469 19.804688-3.648438 28.9375-7.894532-.953125-3.183594-1.460937-6.488281-1.507812-9.8125zm0 0" data-original="#000000" class="active-path" data-old_color="#51aecf" fill="#51aecf"/><path d="m113.875 126.804688-45.347656-45.351563c-42.035156 44.980469-66.375 103.648437-68.527344 165.171875h64.214844c1.996094-44.527344 19.574218-86.9375 49.660156-119.820312zm0 0" data-original="#000000" class="active-path" data-old_color="#51aecf" fill="#51aecf"/><path d="m184.957031 197.882812c-11.410156 13.886719-18.429687 30.855469-20.167969 48.742188h68.90625zm0 0" data-original="#000000" class="active-path" data-old_color="#51aecf" fill="#51aecf"/><path d="m511.535156 264.910156h-64.230468c-4.796876 98.679688-83.714844 177.597656-182.394532 182.394532v64.230468c134.105469-4.941406 241.683594-112.519531 246.625-246.625zm0 0" data-original="#000000" class="active-path" data-old_color="#51aecf" fill="#51aecf"/><path d="m246.625 82.5c-39.679688 1.984375-77.445312 17.636719-106.894531 44.304688l45.21875 45.214843c17.371093-14.769531 38.949219-23.699219 61.675781-25.523437zm0 0" data-original="#000000" class="active-path" data-old_color="#51aecf" fill="#51aecf"/><path d="m246.625 164.789062c-17.886719 1.738282-34.855469 8.757813-48.742188 20.167969l48.742188 48.738281zm0 0" data-original="#000000" class="active-path" data-old_color="#51aecf" fill="#51aecf"/><path d="m429.019531 264.910156h-64.128906c-1.105469 13.1875-4.597656 26.066406-10.308594 38.007813 9.34375 9.207031 13.03125 22.714843 9.667969 35.390625-3.363281 12.675781-13.265625 22.578125-25.941406 25.941406-12.675782 3.363281-26.183594-.324219-35.390625-9.664062-11.941407 5.707031-24.820313 9.199218-38.007813 10.300781v64.132812c88.59375-4.753906 159.355469-75.515625 164.109375-164.109375zm0 0" data-original="#000000" class="active-path" data-old_color="#51aecf" fill="#51aecf"/></g> </svg>
