<?xml version="1.0"?>
<svg xmlns="http://www.w3.org/2000/svg" height="512px" viewBox="0 0 464 464" width="512px"><g><path d="m48 368h128v16h-128zm0 0" data-original="#000000" class="active-path" data-old_color="#51aecf" fill="#51aecf"/><path d="m48 400h128v16h-128zm0 0" data-original="#000000" class="active-path" data-old_color="#51aecf" fill="#51aecf"/><path d="m192 411.054688 38.113281-19.054688-38.113281-19.054688zm0 0" data-original="#000000" class="active-path" data-old_color="#51aecf" fill="#51aecf"/><path d="m304 272h16v-18.246094c-12.335938-2.210937-24.0625-6.105468-35.015625-11.410156l-31.214844 93.65625h-181.769531v-16h16v-48h16v48h16v-32h16v32h16v-48h16v48h16v-16h16v16h16v-48h16v48h10.230469l28.53125-85.585938c-11.355469-7.285156-21.5625-16.183593-30.273438-26.414062h-192.488281v-128h166.023438c1.695312-5.503906 3.832031-10.816406 6.183593-16h-188.207031v288h153.886719l80 40-80 40h-153.886719v16h272.808594c-.527344-2.585938-.808594-5.265625-.808594-8zm-224-48h152v16h-152zm-16 16h-16v-16h16zm0 0" data-original="#000000" class="active-path" data-old_color="#51aecf" fill="#51aecf"/><path d="m32 368h-24c-4.414062 0-8 3.585938-8 8v32c0 4.414062 3.585938 8 8 8h24zm0 0" data-original="#000000" class="active-path" data-old_color="#51aecf" fill="#51aecf"/><path d="m344 256c-2.703125 0-5.335938-.246094-8-.40625v16.40625h16v-16.40625c-2.664062.160156-5.296875.40625-8 .40625zm0 0" data-original="#000000" class="active-path" data-old_color="#51aecf" fill="#51aecf"/><path d="m344 0c-66.167969 0-120 53.832031-120 120s53.832031 120 120 120 120-53.832031 120-120-53.832031-120-120-120zm-104 120c0-57.34375 46.65625-104 104-104 24.550781 0 48.414062 8.769531 67.183594 24.679688l-10.34375 12.199218c-15.878906-13.464844-36.0625-20.878906-56.839844-20.878906-48.519531 0-88 39.480469-88 88 0 20.777344 7.414062 40.960938 20.878906 56.839844l-12.199218 10.34375c-15.910157-18.769532-24.679688-42.632813-24.679688-67.183594zm104 104c-24.550781 0-48.414062-8.769531-67.183594-24.679688l10.34375-12.199218c15.878906 13.464844 36.0625 20.878906 56.839844 20.878906 48.519531 0 88-39.480469 88-88 0-20.777344-7.414062-40.960938-20.878906-56.839844l12.199218-10.34375c15.910157 18.769532 24.679688 42.632813 24.679688 67.183594 0 57.34375-46.65625 104-104 104zm0 0" data-original="#000000" class="active-path" data-old_color="#51aecf" fill="#51aecf"/><path d="m320 440c0 13.230469 10.769531 24 24 24s24-10.769531 24-24v-152h-48zm0 0" data-original="#000000" class="active-path" data-old_color="#51aecf" fill="#51aecf"/><path d="m64 96v96h164.832031c-13.121093-20.910156-20.832031-45.542969-20.832031-72 0-8.199219.855469-16.191406 2.246094-24zm0 0" data-original="#000000" class="active-path" data-old_color="#51aecf" fill="#51aecf"/></g> </svg>
