<?xml version="1.0"?>
<svg xmlns="http://www.w3.org/2000/svg" height="512px" viewBox="0 0 464 464" width="512px" class=""><g><path d="m336 192h80v16h-80zm0 0" data-original="#000000" class="active-path" data-old_color="#51aecf" fill="#51aecf"/><path d="m400 265.296875v-41.296875h-48v41.296875c0 12.445313-6.097656 24.296875-16.167969 31.976563 18.816407 2.0625 32.558594 6.351562 45.902344 10.574218 16.539063 5.230469 33.5625 10.617188 61.5625 11.878906-6.433594-7.6875-14.074219-14.4375-22.953125-19.628906-12.550781-7.335937-20.34375-20.671875-20.34375-34.800781zm0 0" data-original="#000000" class="active-path" data-old_color="#51aecf" fill="#51aecf"/><path d="m176 200c0 39.765625-32.234375 72-72 72s-72-32.234375-72-72 32.234375-72 72-72 72 32.234375 72 72zm0 0" data-original="#000000" class="active-path" data-old_color="#51aecf" fill="#51aecf"/><path d="m208 200c0-57.34375-46.65625-104-104-104s-104 46.65625-104 104 46.65625 104 104 104 104-46.65625 104-104zm-192 0c0-48.519531 39.480469-88 88-88s88 39.480469 88 88-39.480469 88-88 88-88-39.480469-88-88zm0 0" data-original="#000000" class="active-path" data-old_color="#51aecf" fill="#51aecf"/><path d="m323.527344 286.3125c7.808594-4.570312 12.472656-12.433594 12.472656-21.015625v-41.296875c-8.824219 0-16-7.175781-16-16v-16c0-8.824219 7.175781-16 16-16h48v-96h-80v-80h-224v82.414062c7.761719-1.574218 15.785156-2.414062 24-2.414062 66.167969 0 120 53.832031 120 120 0 52.128906-33.472656 96.472656-80 113v103h136.921875c-4.96875-10.816406-8.113281-22.367188-8.761719-34.183594-2.144531-39.121094 17.542969-75.710937 51.367188-95.503906zm44.472656-126.3125h-16v-16h16zm0-48v16h-136v-16zm-136-16v-16h56v16zm-136-80h192v16h-192zm0 48v-16h192v16zm136 80h104v16h-104zm0 0" data-original="#000000" class="active-path" data-old_color="#51aecf" fill="#51aecf"/><path d="m320 11.3125v52.6875h52.6875zm0 0" data-original="#000000" class="active-path" data-old_color="#51aecf" fill="#51aecf"/><path d="m80 317.585938v122.414062c0 13.230469 10.769531 24 24 24s24-10.769531 24-24v-122.414062c-7.761719 1.574218-15.785156 2.414062-24 2.414062s-16.238281-.839844-24-2.414062zm0 0" data-original="#000000" class="active-path" data-old_color="#51aecf" fill="#51aecf"/><path d="m432 384c0 4.417969-3.582031 8-8 8s-8-3.582031-8-8 3.582031-8 8-8 8 3.582031 8 8zm0 0" data-original="#000000" class="active-path" data-old_color="#51aecf" fill="#51aecf"/><path d="m454.078125 335.960938c-37.007813-.226563-57.460937-6.632813-77.167969-12.855469-17.214844-5.449219-33.652344-10.554688-61.03125-11.015625-18.742187 17.550781-29.183594 42.453125-27.742187 68.847656 2.320312 42.503906 41.679687 81.285156 84.238281 82.992188 24.265625.949218 47.160156-7.722657 64.585938-24.464844 17.4375-16.753906 27.039062-39.296875 27.039062-63.464844 0-14.144531-3.609375-27.792969-9.921875-40.039062zm-126.078125 72.039062c-13.230469 0-24-10.769531-24-24s10.769531-24 24-24 24 10.769531 24 24-10.769531 24-24 24zm48 40c-13.230469 0-24-10.769531-24-24s10.769531-24 24-24 24 10.769531 24 24-10.769531 24-24 24zm48-40c-13.230469 0-24-10.769531-24-24s10.769531-24 24-24 24 10.769531 24 24-10.769531 24-24 24zm0 0" data-original="#000000" class="active-path" data-old_color="#51aecf" fill="#51aecf"/><path d="m336 384c0 4.417969-3.582031 8-8 8s-8-3.582031-8-8 3.582031-8 8-8 8 3.582031 8 8zm0 0" data-original="#000000" class="active-path" data-old_color="#51aecf" fill="#51aecf"/><path d="m384 424c0 4.417969-3.582031 8-8 8s-8-3.582031-8-8 3.582031-8 8-8 8 3.582031 8 8zm0 0" data-original="#000000" class="active-path" data-old_color="#51aecf" fill="#51aecf"/></g> </svg>
