<?xml version="1.0"?>
<svg xmlns="http://www.w3.org/2000/svg" height="512px" viewBox="0 0 512 512" width="512px" class=""><g><path d="m274.285156 201.144531h36.578125v36.570313h-36.578125zm0 0" data-original="#000000" class="active-path" data-old_color="#51aecf" fill="#51aecf"/><path d="m301.714844 512v-36.570312h-210.285156v36.570312zm0 0" data-original="#000000" class="active-path" data-old_color="#51aecf" fill="#51aecf"/><path d="m274.285156 292.570312h36.578125v36.574219h-36.578125zm0 0" data-original="#000000" class="active-path" data-old_color="#51aecf" fill="#51aecf"/><path d="m274.285156 384h36.578125v36.570312h-36.578125zm0 0" data-original="#000000" class="active-path" data-old_color="#51aecf" fill="#51aecf"/><path d="m54.855469 475.429688h18.289062v36.570312h-18.289062zm0 0" data-original="#000000" class="active-path" data-old_color="#51aecf" fill="#51aecf"/><path d="m364.234375 493.714844-44.234375-14.738282v29.476563zm0 0" data-original="#000000" class="active-path" data-old_color="#51aecf" fill="#51aecf"/><path d="m219.429688 274.285156h-186.699219c-3.359375 0-6.449219-1.84375-8.042969-4.804687-1.597656-2.957031-1.441406-6.550781.402344-9.359375l75.425781-114.742188c3.371094-5.128906 9.09375-8.222656 15.234375-8.234375h42.695312c6.121094.003907 11.835938 3.054688 15.25 8.136719l45.734376 69.558594v-30.609375l-33.332032-48.6875c-2.125-3.039063-3.257812-6.667969-3.242187-10.378907v-79.449218h-91.425781v79.449218c.007812 3.757813-1.152344 7.421876-3.324219 10.488282l-77.996094 113.996094c-5.730469 8.398437-6.347656 19.277343-1.605469 28.269531 4.738282 8.992187 14.0625 14.632812 24.226563 14.652343h186.699219zm-109.714844-210.285156c0-5.050781 4.09375-9.144531 9.140625-9.144531 5.050781 0 9.144531 4.09375 9.144531 9.144531v9.144531c0 5.046875-4.09375 9.140625-9.144531 9.140625-5.046875 0-9.140625-4.09375-9.140625-9.140625zm2.652344 39.222656c2.15625-2.144531 5.242187-3.070312 8.226562-2.46875.605469.085938 1.191406.273438 1.738281.550782.582031.199218 1.136719.476562 1.644531.820312.457032.367188.921876.730469 1.371094 1.097656 3.535156 3.605469 3.535156 9.378906 0 12.984375-.457031.363281-.917968.730469-1.371094 1.097657-.507812.34375-1.0625.621093-1.644531.820312-.546875.277344-1.132812.460938-1.738281.550781-.574219.101563-1.152344.164063-1.738281.179688-.609375-.019531-1.222657-.082031-1.828125-.179688-.570313-.101562-1.125-.289062-1.644532-.550781-.585937-.199219-1.140624-.476562-1.652343-.820312-.457031-.363282-.914063-.730469-1.371094-1.097657-3.535156-3.605469-3.535156-9.378906 0-12.984375zm0 0" data-original="#000000" class="active-path" data-old_color="#51aecf" fill="#51aecf"/><path d="m502.855469 201.144531h-36.570313c-5.050781 0-9.140625 4.089844-9.140625 9.140625 0 5.050782 4.089844 9.144532 9.140625 9.144532h36.570313c5.050781 0 9.144531-4.09375 9.144531-9.144532 0-5.050781-4.09375-9.140625-9.144531-9.140625zm0 0" data-original="#000000" class="active-path" data-old_color="#51aecf" fill="#51aecf"/><path d="m115.75 155.429688-66.070312 100.570312h169.75v-7.863281l-60.949219-92.707031zm-6.21875 74.96875c-.101562.574218-.285156 1.128906-.546875 1.648437-.203125.582031-.480469 1.136719-.824219 1.644531-.339844.480469-.703125.9375-1.097656 1.371094-3.605469 3.535156-9.375 3.535156-12.984375 0-3.535156-3.605469-3.535156-9.375 0-12.984375 2.652344-2.554687 6.558594-3.308594 9.96875-1.917969 1.117187.441406 2.140625 1.09375 3.015625 1.917969.394531.433594.761719.894531 1.097656 1.375.34375.507813.621094 1.0625.824219 1.644531.261719.519532.445313 1.074219.546875 1.644532.242188 1.207031.242188 2.449218 0 3.65625zm27.429688-27.425782c-.101563.570313-.289063 1.125-.550782 1.644532-.199218.582031-.476562 1.136718-.820312 1.644531-.339844.480469-.707032.9375-1.097656 1.371093-3.605469 3.535157-9.378907 3.535157-12.984376 0-3.535156-3.605468-3.535156-9.375 0-12.980468 2.648438-2.558594 6.558594-3.308594 9.964844-1.921875 1.121094.445312 2.144532 1.09375 3.019532 1.921875.394531.433594.761718.890625 1.097656 1.371094.34375.507812.621094 1.0625.820312 1.644531.261719.519531.449219 1.074219.550782 1.644531.242187 1.207031.242187 2.453125 0 3.660156zm24.960937 19.105469c.394531.433594.757813.894531 1.09375 1.375.347656.507813.625 1.0625.824219 1.644531.261718.519532.445312 1.074219.546875 1.644532.246093 1.207031.246093 2.449218 0 3.65625-.101563.574218-.285157 1.128906-.546875 1.648437-.199219.582031-.476563 1.136719-.824219 1.644531-.335937.480469-.703125.9375-1.09375 1.371094-3.609375 3.535156-9.378906 3.535156-12.984375 0-3.535156-3.605469-3.535156-9.375 0-12.984375 2.648438-2.554687 6.554688-3.308594 9.964844-1.917969 1.117187.441406 2.144531 1.09375 3.019531 1.917969zm0 0" data-original="#000000" class="active-path" data-old_color="#51aecf" fill="#51aecf"/><path d="m18.285156 512h18.285156v-36.570312h-18.285156c-10.097656 0-18.285156 8.1875-18.285156 18.285156s8.1875 18.285156 18.285156 18.285156zm0 0" data-original="#000000" class="active-path" data-old_color="#51aecf" fill="#51aecf"/><path d="m73.144531 27.429688h127.980469c5.046875-.003907 9.136719-4.097657 9.140625-9.144532v-9.140625c-.003906-5.050781-4.09375-9.14062475-9.140625-9.144531h-127.980469c-5.050781.00390625-9.140625 4.09375-9.144531 9.144531v9.140625c.003906 5.046875 4.09375 9.140625 9.144531 9.144532zm0 0" data-original="#000000" class="active-path" data-old_color="#51aecf" fill="#51aecf"/><path d="m502.855469 365.714844h-36.570313c-5.050781 0-9.140625 4.09375-9.140625 9.140625 0 5.050781 4.089844 9.144531 9.140625 9.144531h36.570313c5.050781 0 9.144531-4.09375 9.144531-9.144531 0-5.046875-4.09375-9.140625-9.144531-9.140625zm0 0" data-original="#000000" class="active-path" data-old_color="#51aecf" fill="#51aecf"/><path d="m370.019531 511.0625-2.8125.9375h99.078125c5.046875-.003906 9.140625-4.09375 9.144532-9.144531v-18.285157h-9.144532c-15.148437 0-27.429687-12.277343-27.429687-27.425781 0-15.148437 12.28125-27.429687 27.429687-27.429687h9.144532v-27.429688h-9.144532c-15.148437 0-27.429687-12.28125-27.429687-27.429687 0-15.148438 12.28125-27.425781 27.429687-27.425781h9.144532v-27.429688h-9.144532c-15.148437 0-27.429687-12.28125-27.429687-27.429688 0-15.148437 12.28125-27.425781 27.429687-27.425781h9.144532v-27.429687h-9.144532c-15.148437 0-27.429687-12.28125-27.429687-27.429688 0-15.148437 12.28125-27.429687 27.429687-27.429687h9.144532v-18.285157c-.003907-5.046874-4.097657-9.136718-9.144532-9.140624h-219.429687c-5.046875.003906-9.136719 4.09375-9.140625 9.140624v292.574219h73.140625c.953125.226563 1.917969.386719 2.894531.46875l56.269531 18.753907c7.46875 2.488281 12.503907 9.476562 12.503907 17.347656s-5.035157 14.859375-12.503907 17.347656zm-22.589843-319.0625h64c5.046874 0 9.140624 4.09375 9.140624 9.144531 0 5.046875-4.09375 9.140625-9.140624 9.140625h-64c-5.050782 0-9.144532-4.09375-9.144532-9.140625 0-5.050781 4.09375-9.144531 9.144532-9.144531zm0 36.570312h73.140624c5.050782 0 9.144532 4.09375 9.144532 9.144532 0 5.050781-4.09375 9.140625-9.144532 9.140625h-73.140624c-5.050782 0-9.144532-4.089844-9.144532-9.140625 0-5.050782 4.09375-9.144532 9.144532-9.144532zm0 54.859376h64c5.046874 0 9.140624 4.09375 9.140624 9.140624 0 5.050782-4.09375 9.144532-9.140624 9.144532h-64c-5.050782 0-9.144532-4.09375-9.144532-9.144532 0-5.046874 4.09375-9.140624 9.144532-9.140624zm0 36.570312h73.140624c5.050782 0 9.144532 4.09375 9.144532 9.144531 0 5.046875-4.09375 9.140625-9.144532 9.140625h-73.140624c-5.050782 0-9.144532-4.09375-9.144532-9.140625 0-5.050781 4.09375-9.144531 9.144532-9.144531zm0 54.855469h64c5.046874 0 9.140624 4.09375 9.140624 9.144531s-4.09375 9.144531-9.140624 9.144531h-64c-5.050782 0-9.144532-4.09375-9.144532-9.144531s4.09375-9.144531 9.144532-9.144531zm-18.285157 45.714843c-.011719 10.09375-8.191406 18.273438-18.289062 18.285157h-36.570313c-10.09375-.011719-18.273437-8.191407-18.285156-18.285157v-36.570312c.011719-10.09375 8.191406-18.273438 18.285156-18.285156h36.570313c10.097656.011718 18.277343 8.191406 18.289062 18.285156zm0-91.425781c-.011719 10.09375-8.191406 18.273438-18.289062 18.285157h-36.570313c-10.09375-.011719-18.273437-8.191407-18.285156-18.285157v-36.574219c.011719-10.09375 8.191406-18.273437 18.285156-18.285156h36.570313c10.097656.011719 18.277343 8.191406 18.289062 18.285156zm0-91.429687c-.011719 10.09375-8.191406 18.273437-18.289062 18.285156h-36.570313c-10.09375-.011719-18.273437-8.191406-18.285156-18.285156v-36.570313c.011719-10.097656 8.191406-18.277343 18.285156-18.289062h36.570313c10.097656.011719 18.277343 8.191406 18.289062 18.289062zm18.285157 192c-5.050782 0-9.144532-4.09375-9.144532-9.144532 0-5.046874 4.09375-9.140624 9.144532-9.140624h73.140624c5.050782 0 9.144532 4.09375 9.144532 9.140624 0 5.050782-4.09375 9.144532-9.144532 9.144532zm0 0" data-original="#000000" class="active-path" data-old_color="#51aecf" fill="#51aecf"/><path d="m512 457.144531c-.003906-5.050781-4.09375-9.140625-9.144531-9.144531h-36.570313c-5.050781 0-9.140625 4.09375-9.140625 9.144531 0 5.046875 4.089844 9.140625 9.140625 9.140625h36.570313c5.050781-.003906 9.140625-4.09375 9.144531-9.140625zm0 0" data-original="#000000" class="active-path" data-old_color="#51aecf" fill="#51aecf"/><path d="m502.855469 283.429688h-36.570313c-5.050781 0-9.140625 4.09375-9.140625 9.140624 0 5.050782 4.089844 9.144532 9.140625 9.144532h36.570313c5.050781 0 9.144531-4.09375 9.144531-9.144532 0-5.046874-4.09375-9.140624-9.144531-9.140624zm0 0" data-original="#000000" class="active-path" data-old_color="#51aecf" fill="#51aecf"/></g> </svg>
