<?xml version="1.0"?>
<svg xmlns="http://www.w3.org/2000/svg" height="512px" viewBox="-56 0 464 464" width="512px" class=""><g><path d="m80 80c17.648438 0 32-14.351562 32-32v-16c0-17.648438-14.351562-32-32-32s-32 14.351562-32 32v16c0 17.648438 14.351562 32 32 32zm0 0" data-original="#000000" class="active-path" data-old_color="#51aecf" fill="#51aecf"/><path d="m272 80c17.648438 0 32-14.351562 32-32v-16c0-17.648438-14.351562-32-32-32s-32 14.351562-32 32v16c0 17.648438 14.351562 32 32 32zm0 0" data-original="#000000" class="active-path" data-old_color="#51aecf" fill="#51aecf"/><path d="m32 232h72v-24h24v-64h16v40.246094c4.136719-5.550782 9.59375-10.039063 16-12.855469v-26.40625c0-11.03125-7.480469-20.609375-18.175781-23.289063l-45.824219-11.449218v-17.046875c-5.015625 1.777343-10.382812 2.800781-16 2.800781s-10.984375-1.023438-16-2.800781v17.046875l-45.824219 11.449218c-10.695312 2.679688-18.175781 12.257813-18.175781 23.289063v127.015625h16v-128h16zm0 0" data-original="#000000" class="active-path" data-old_color="#51aecf" fill="#51aecf"/><path d="m248 256h-8c-13.230469 0-24 10.769531-24 24s10.769531 24 24 24h8v48h-24v112h40v-184h16v184h40v-216h-72zm0 0" data-original="#000000" class="active-path" data-old_color="#51aecf" fill="#51aecf"/><path d="m333.824219 121.695312-45.824219-11.449218v-17.046875c-5.015625 1.777343-10.382812 2.800781-16 2.800781s-10.984375-1.023438-16-2.800781v17.046875l-45.824219 11.449218c-10.695312 2.679688-18.175781 12.257813-18.175781 23.289063v26.40625c6.40625 2.816406 11.863281 7.304687 16 12.855469v-40.246094h16v64h24v24h72v-88h16v128h16v-127.015625c0-11.03125-7.480469-20.609375-18.175781-23.289063zm0 0" data-original="#000000" class="active-path" data-old_color="#51aecf" fill="#51aecf"/><path d="m104 304h8c13.230469 0 24-10.769531 24-24s-10.769531-24-24-24h-8v-8h-72v216h40v-184h16v184h40v-112h-24zm0 0" data-original="#000000" class="active-path" data-old_color="#51aecf" fill="#51aecf"/><path d="m196.535156 336h35.464844v-16.808594c-18.230469-3.71875-32-19.871094-32-39.191406s13.769531-35.480469 32-39.191406v-16.808594h-35.464844l2.585938-10c.597656-2.320312.878906-4.222656.878906-6 0-13.230469-10.769531-24-24-24s-24 10.769531-24 24c0 1.777344.28125 3.679688.871094 6l2.59375 10h-35.464844v16.808594c18.230469 3.71875 32 19.871094 32 39.191406s-13.769531 35.480469-32 39.191406v16.808594h35.464844l-2.585938 10c-.597656 2.320312-.878906 4.222656-.878906 6 0 13.230469 10.769531 24 24 24s24-10.769531 24-24c0-1.777344-.28125-3.679688-.871094-6zm0 0" data-original="#000000" class="active-path" data-old_color="#51aecf" fill="#51aecf"/></g> </svg>
