<?xml version="1.0"?>
<svg xmlns="http://www.w3.org/2000/svg" xmlns:xlink="http://www.w3.org/1999/xlink" version="1.1" id="Capa_1" x="0px" y="0px" width="512px" height="512px" viewBox="0 0 492.625 492.625" style="enable-background:new 0 0 492.625 492.625;" xml:space="preserve"><g><g>
	<path d="M419.587,0h-76.979l-6.242,210.531L329.233,0H163.463l-6.241,210.531L150.09,0H73.037c-5.333,0-9.657,4.322-9.657,9.656   v237.303c0,5.334,4.324,9.656,9.657,9.656h150.741l18.255,18.258c-1.418,0.803-2.614,1.992-3.404,3.486l-32.095,60.703   l-67.652,11.768c-3.173,0.553-5.781,2.814-6.776,5.877c-0.996,3.062-0.215,6.426,2.028,8.736l47.816,49.285l-9.717,67.975   c-0.455,3.189,0.89,6.369,3.496,8.262c2.605,1.893,6.044,2.189,8.938,0.771l61.645-30.246l61.646,30.246   c1.215,0.594,2.523,0.889,3.828,0.889c1.803,0,3.598-0.561,5.109-1.66c2.605-1.893,3.951-5.072,3.496-8.262l-9.717-67.975   l47.816-49.285c2.242-2.312,3.023-5.674,2.027-8.736s-3.604-5.324-6.775-5.877l-67.65-11.768l-32.097-60.703   c-0.79-1.494-1.985-2.684-3.404-3.486l18.255-18.258h150.74c5.334,0,9.658-4.322,9.658-9.656V9.656   C429.245,4.322,424.921,0,419.587,0z" data-original="#000000" class="active-path" data-old_color="#51aecf" fill="#51aecf"/>
</g></g> </svg>
