<?xml version="1.0"?>
<svg xmlns="http://www.w3.org/2000/svg" height="512px" viewBox="0 0 464 464" width="512px" class=""><g><path d="m224 143.183594v-31.191406h16v31.191406c18.230469-3.71875 32-19.871094 32-39.191406 0-22.054688-17.945312-40-40-40s-40 17.945312-40 40c0 19.320312 13.769531 35.480468 32 39.191406zm0-63.191406h16v16h-16zm0 0" data-original="#000000" class="active-path" data-old_color="#51aecf" fill="#51aecf"/><path d="m301.207031 378.238281-41.542969-9.230469c-4.566406 6.054688-13.671874 14.992188-27.664062 14.992188s-23.097656-8.9375-27.664062-14.992188l-41.542969 9.230469c-11.066407 2.457031-18.792969 12.089844-18.792969 23.425781v62.328126h176v-62.328126c0-11.335937-7.726562-20.96875-18.792969-23.425781zm0 0" data-original="#000000" class="active-path" data-old_color="#51aecf" fill="#51aecf"/><path d="m445.207031 378.238281-41.542969-9.230469c-4.566406 6.054688-13.671874 14.992188-27.664062 14.992188s-23.097656-8.9375-27.664062-14.992188l-23.359376 5.191407c6.847657 7.207031 11.023438 16.839843 11.023438 27.464843v62.328126h128v-62.328126c0-11.335937-7.726562-20.96875-18.792969-23.425781zm0 0" data-original="#000000" class="active-path" data-old_color="#51aecf" fill="#51aecf"/><path d="m88 383.992188c-13.992188 0-23.097656-8.9375-27.664062-14.992188l-41.542969 9.230469c-11.066407 2.464843-18.792969 12.097656-18.792969 23.433593v62.328126h128v-62.328126c0-10.625 4.175781-20.265624 11.023438-27.472656l-23.359376-5.191406c-4.566406 6.054688-13.671874 14.992188-27.664062 14.992188zm0 0" data-original="#000000" class="active-path" data-old_color="#51aecf" fill="#51aecf"/><path d="m88 335.992188c22.054688 0 40-17.945313 40-40v-16c0-19.3125-13.769531-35.472657-32-39.191407v-27.394531l70.238281-28.085938 8.167969 8.167969 17.144531-11.433593c4.441407 2.304687 9.074219 4.226562 13.847657 5.746093l4.050781 20.191407h14.550781v32.808593c-18.230469 3.71875-32 19.871094-32 39.191407v16c0 22.054687 17.945312 40 40 40s40-17.945313 40-40v-16c0-19.3125-13.769531-35.472657-32-39.191407v-32.808593h14.550781l4.050781-20.191407c4.78125-1.511719 9.414063-3.441406 13.847657-5.746093l17.144531 11.433593 8.167969-8.167969 70.238281 28.085938v27.394531c-18.230469 3.71875-32 19.871094-32 39.191407v16c0 22.054687 17.945312 40 40 40s40-17.945313 40-40v-16c0-19.3125-13.769531-35.472657-32-39.191407v-38.226562l-73.929688-29.574219 11.417969-11.414062-11.433593-17.144532c2.304687-4.441406 4.226562-9.074218 5.746093-13.847656l20.199219-4.042969v-45.109375l-20.191406-4.050781c-1.511719-4.78125-3.441406-9.414063-5.746094-13.847656l11.433594-17.144531-31.894532-31.894532-17.144531 11.433594c-4.441406-2.304688-9.074219-4.226562-13.847656-5.746094l-4.050781-20.191406h-45.109375l-4.050781 20.191406c-4.78125 1.511719-9.414063 3.441406-13.847657 5.746094l-17.144531-11.433594-31.894531 31.894532 11.433593 17.144531c-2.304687 4.441406-4.226562 9.074219-5.746093 13.847656l-20.199219 4.050781v45.109375l20.191406 4.050781c1.511719 4.78125 3.441406 9.414063 5.746094 13.847657l-11.433594 17.144531 11.417969 11.414062-73.921875 29.578126v38.222656c-18.230469 3.71875-32 19.871094-32 39.191406v16c0 22.046875 17.945312 39.992188 40 39.992188zm144-288c30.871094 0 56 25.128906 56 56 0 30.871093-25.128906 56-56 56s-56-25.128907-56-56c0-30.871094 25.128906-56 56-56zm0 0" data-original="#000000" class="active-path" data-old_color="#51aecf" fill="#51aecf"/><path d="m72 349.632812v8.160157c1.960938 3.023437 7.480469 10.199219 16 10.199219 8.503906 0 14.015625-7.144532 16-10.207032v-8.152344c-5.070312 1.519532-10.441406 2.359376-16 2.359376s-10.929688-.839844-16-2.359376zm0 0" data-original="#000000" class="active-path" data-old_color="#51aecf" fill="#51aecf"/><path d="m216 349.632812v8.152344c1.984375 3.0625 7.496094 10.207032 16 10.207032s14.015625-7.144532 16-10.207032v-8.152344c-5.070312 1.519532-10.441406 2.359376-16 2.359376s-10.929688-.839844-16-2.359376zm0 0" data-original="#000000" class="active-path" data-old_color="#51aecf" fill="#51aecf"/><path d="m360 349.632812v8.152344c1.984375 3.0625 7.496094 10.207032 16 10.207032s14.015625-7.144532 16-10.207032v-8.152344c-5.070312 1.519532-10.441406 2.359376-16 2.359376s-10.929688-.839844-16-2.359376zm0 0" data-original="#000000" class="active-path" data-old_color="#51aecf" fill="#51aecf"/><path d="m368 39.992188h16v16h-16zm0 0" data-original="#000000" class="active-path" data-old_color="#51aecf" fill="#51aecf"/><path d="m368 87.992188h16v16h-16zm0 0" data-original="#000000" class="active-path" data-old_color="#51aecf" fill="#51aecf"/><path d="m368 135.992188h16v16h-16zm0 0" data-original="#000000" class="active-path" data-old_color="#51aecf" fill="#51aecf"/><path d="m400 87.992188h16v16h-16zm0 0" data-original="#000000" class="active-path" data-old_color="#51aecf" fill="#51aecf"/><path d="m400 135.992188h16v16h-16zm0 0" data-original="#000000" class="active-path" data-old_color="#51aecf" fill="#51aecf"/><path d="m400 183.992188h16v16h-16zm0 0" data-original="#000000" class="active-path" data-old_color="#51aecf" fill="#51aecf"/><path d="m80 39.992188h16v16h-16zm0 0" data-original="#000000" class="active-path" data-old_color="#51aecf" fill="#51aecf"/><path d="m80 87.992188h16v16h-16zm0 0" data-original="#000000" class="active-path" data-old_color="#51aecf" fill="#51aecf"/><path d="m80 135.992188h16v16h-16zm0 0" data-original="#000000" class="active-path" data-old_color="#51aecf" fill="#51aecf"/><path d="m48 87.992188h16v16h-16zm0 0" data-original="#000000" class="active-path" data-old_color="#51aecf" fill="#51aecf"/><path d="m48 135.992188h16v16h-16zm0 0" data-original="#000000" class="active-path" data-old_color="#51aecf" fill="#51aecf"/><path d="m48 183.992188h16v16h-16zm0 0" data-original="#000000" class="active-path" data-old_color="#51aecf" fill="#51aecf"/></g> </svg>
